<svg width="99" height="120" viewBox="0 0 99 120" fill="none" xmlns="http://www.w3.org/2000/svg">
<path d="M13.0808 114.192L12.853 117.172C12.5241 117.716 12.1065 118.203 11.6004 118.634C11.107 119.051 10.5186 119.386 9.83536 119.639C9.16477 119.88 8.39296 120 7.51992 120C6.20404 119.987 5.03367 119.696 4.0088 119.127C2.98393 118.558 2.18048 117.76 1.59846 116.736C1.02909 115.698 0.744404 114.477 0.744404 113.073C0.744404 111.694 1.02909 110.492 1.59846 109.467C2.16783 108.429 2.96495 107.626 3.98982 107.056C5.02734 106.474 6.242 106.183 7.63379 106.183C8.57009 106.183 9.4115 106.31 10.158 106.563C10.9172 106.803 11.5751 107.107 12.1318 107.474L12.5114 110.15H12.3406C12.0622 109.036 11.4929 108.195 10.6325 107.626C9.7721 107.044 8.77254 106.753 7.63379 106.753C6.52036 106.753 5.55243 107.018 4.73 107.55C3.92023 108.069 3.2876 108.802 2.8321 109.751C2.38925 110.688 2.16783 111.788 2.16783 113.054C2.16783 114.319 2.38925 115.426 2.8321 116.375C3.2876 117.324 3.9139 118.064 4.71102 118.596C5.5208 119.127 6.4571 119.405 7.51992 119.431C8.41826 119.431 9.24701 119.266 10.0062 118.937C10.778 118.596 11.4233 118.045 11.942 117.286C12.4608 116.514 12.7898 115.483 12.9289 114.192H13.0808Z" fill="#F7FEFF"/>
<path d="M20.5541 106.183L26.1719 119.62H24.5587L20.1745 107.986L20.5541 106.183ZM16.4736 118.349C16.385 118.602 16.3724 118.817 16.4356 118.994C16.4989 119.171 16.6001 119.31 16.7393 119.412C16.8911 119.5 17.043 119.545 17.1948 119.545H17.3656V119.734H13.5508V119.545C13.5508 119.545 13.5824 119.545 13.6457 119.545C13.6963 119.545 13.7216 119.545 13.7216 119.545C14.0126 119.545 14.31 119.456 14.6136 119.279C14.93 119.089 15.1893 118.779 15.3918 118.349H16.4736ZM20.5541 106.183L20.7249 107.512L15.9611 119.677H14.8224L19.681 108.138C19.681 108.138 19.7127 108.062 19.7759 107.91C19.8518 107.746 19.9341 107.55 20.0227 107.322C20.1239 107.094 20.2061 106.873 20.2694 106.658C20.3453 106.443 20.3833 106.284 20.3833 106.183H20.5541ZM23.2301 114.553V115.122H17.2897V114.553H23.2301ZM24.0842 118.349H25.6405C25.8302 118.779 26.0833 119.089 26.3996 119.279C26.7159 119.456 27.0196 119.545 27.3106 119.545C27.3106 119.545 27.3359 119.545 27.3865 119.545C27.4371 119.545 27.4624 119.545 27.4624 119.545V119.734H23.1922V119.545H23.363C23.6034 119.545 23.8185 119.443 24.0083 119.241C24.198 119.026 24.2234 118.728 24.0842 118.349Z" fill="#F7FEFF"/>
<path d="M29.3587 106.164L40.3855 117.931L40.5564 120L29.5295 108.252L29.3587 106.164ZM29.3967 118.387V119.734H27.8214V119.545C27.8214 119.545 27.8783 119.545 27.9922 119.545C28.1061 119.545 28.1694 119.545 28.182 119.545C28.4983 119.545 28.7704 119.431 28.9981 119.203C29.2259 118.975 29.3397 118.703 29.3397 118.387H29.3967ZM30.2128 118.387C30.2128 118.703 30.3266 118.975 30.5544 119.203C30.7821 119.431 31.0542 119.545 31.3705 119.545C31.3831 119.545 31.4464 119.545 31.5603 119.545C31.6742 119.545 31.7311 119.545 31.7311 119.545V119.734H30.1558V118.387H30.2128ZM29.3587 106.164L30.1938 107.227L30.2128 119.734H29.3397V108.537C29.3397 107.891 29.3081 107.335 29.2448 106.867C29.1942 106.398 29.1689 106.164 29.1689 106.164H29.3587ZM40.5564 106.449V117.571C40.5564 117.976 40.569 118.368 40.5943 118.747C40.6196 119.114 40.6449 119.418 40.6702 119.658C40.7082 119.886 40.7272 120 40.7272 120H40.5564L39.7023 118.994V106.449H40.5564ZM42.0747 106.449V106.639C42.0747 106.639 42.0177 106.639 41.9039 106.639C41.79 106.639 41.733 106.639 41.733 106.639C41.4167 106.639 41.1447 106.753 40.917 106.98C40.6892 107.195 40.569 107.468 40.5564 107.796H40.4994V106.449H42.0747ZM38.165 106.449H39.7403V107.796H39.7023C39.6896 107.468 39.5694 107.195 39.3417 106.98C39.1266 106.753 38.8546 106.639 38.5256 106.639C38.5256 106.639 38.4687 106.639 38.3548 106.639C38.2409 106.639 38.1776 106.639 38.165 106.639V106.449Z" fill="#F7FEFF"/>
<path d="M49.1761 106.183L54.7939 119.62H53.1807L48.7965 107.986L49.1761 106.183ZM45.0956 118.349C45.007 118.602 44.9944 118.817 45.0576 118.994C45.1209 119.171 45.2221 119.31 45.3613 119.412C45.5131 119.5 45.665 119.545 45.8168 119.545H45.9876V119.734H42.1728V119.545C42.1728 119.545 42.2045 119.545 42.2677 119.545C42.3183 119.545 42.3436 119.545 42.3436 119.545C42.6347 119.545 42.932 119.456 43.2357 119.279C43.552 119.089 43.8114 118.779 44.0138 118.349H45.0956ZM49.1761 106.183L49.3469 107.512L44.5832 119.677H43.4444L48.3031 108.138C48.3031 108.138 48.3347 108.062 48.398 107.91C48.4739 107.746 48.5561 107.55 48.6447 107.322C48.7459 107.094 48.8281 106.873 48.8914 106.658C48.9673 106.443 49.0053 106.284 49.0053 106.183H49.1761ZM51.8521 114.553V115.122H45.9117V114.553H51.8521ZM52.7062 118.349H54.2625C54.4523 118.779 54.7053 119.089 55.0216 119.279C55.338 119.456 55.6416 119.545 55.9326 119.545C55.9326 119.545 55.9579 119.545 56.0086 119.545C56.0592 119.545 56.0845 119.545 56.0845 119.545V119.734H51.8142V119.545H51.985C52.2254 119.545 52.4405 119.443 52.6303 119.241C52.8201 119.026 52.8454 118.728 52.7062 118.349Z" fill="#F7FEFF"/>
<path d="M59.4231 106.449V119.734H58.1895V106.449H59.4231ZM64.5475 119.146V119.734H59.3662V119.146H64.5475ZM65.7052 116.66L64.6044 119.734H61.4539L62.1372 119.146C62.8077 119.146 63.3518 119.045 63.7693 118.842C64.1995 118.627 64.5475 118.33 64.8132 117.95C65.0789 117.571 65.313 117.14 65.5154 116.66H65.7052ZM58.2464 118.349V119.734H56.7281V119.545C56.7281 119.545 56.7661 119.545 56.842 119.545C56.9306 119.545 56.9749 119.545 56.9749 119.545C57.3038 119.545 57.5822 119.431 57.8099 119.203C58.0503 118.962 58.1769 118.678 58.1895 118.349H58.2464ZM58.2464 107.834H58.1895C58.1769 107.505 58.0503 107.227 57.8099 106.999C57.5822 106.759 57.3038 106.639 56.9749 106.639C56.9749 106.639 56.9306 106.639 56.842 106.639C56.7661 106.639 56.7281 106.639 56.7281 106.639V106.449H58.2464V107.834ZM59.3662 107.834V106.449H60.8845V106.639C60.8719 106.639 60.8276 106.639 60.7517 106.639C60.6758 106.639 60.6378 106.639 60.6378 106.639C60.3088 106.639 60.0241 106.759 59.7837 106.999C59.556 107.227 59.4358 107.505 59.4231 107.834H59.3662Z" fill="#F7FEFF"/>
<path d="M69.5176 106.449V119.734H68.284V106.449H69.5176ZM74.642 119.146V119.734H69.4607V119.146H74.642ZM73.8259 112.902V113.471H69.4607V112.902H73.8259ZM74.642 106.449V107.037H69.4607V106.449H74.642ZM75.7997 116.66L74.6989 119.734H71.5484L72.2316 119.146C72.9022 119.146 73.4463 119.045 73.8638 118.842C74.294 118.627 74.642 118.33 74.9077 117.95C75.1734 117.571 75.4075 117.14 75.6099 116.66H75.7997ZM73.8259 113.433V114.686H73.6361V114.401C73.6361 114.148 73.5475 113.933 73.3704 113.756C73.1932 113.566 72.9781 113.471 72.7251 113.471V113.433H73.8259ZM73.8259 111.687V112.94H72.7251V112.902C72.9781 112.889 73.1932 112.794 73.3704 112.617C73.5475 112.427 73.6361 112.206 73.6361 111.953V111.687H73.8259ZM74.642 106.98V108.499H74.4522V108.157C74.4522 107.853 74.3446 107.594 74.1295 107.379C73.9144 107.151 73.6487 107.031 73.3324 107.018V106.98H74.642ZM74.642 106.107V106.658L72.3265 106.449C72.6049 106.449 72.8959 106.43 73.1996 106.392C73.5159 106.354 73.8069 106.31 74.0726 106.259C74.3383 106.209 74.5281 106.158 74.642 106.107ZM68.3409 118.349V119.734H66.8226V119.545C66.8226 119.545 66.8606 119.545 66.9365 119.545C67.025 119.545 67.0693 119.545 67.0693 119.545C67.3983 119.545 67.6766 119.431 67.9044 119.203C68.1448 118.962 68.2713 118.678 68.284 118.349H68.3409ZM68.3409 107.834H68.284C68.284 107.505 68.1638 107.227 67.9234 106.999C67.683 106.759 67.3983 106.639 67.0693 106.639C67.0693 106.639 67.0314 106.639 66.9554 106.639C66.8795 106.639 66.8416 106.639 66.8416 106.639L66.8226 106.449H68.3409V107.834Z" fill="#F7FEFF"/>
<path d="M82.8437 106.506V119.734H81.6101V106.506H82.8437ZM87.7213 106.43V106.999H76.7325V106.43H87.7213ZM87.7213 106.942V108.48L87.5315 108.461V108.138C87.5315 107.822 87.4177 107.556 87.1899 107.341C86.9748 107.126 86.7154 107.012 86.4118 106.999V106.942H87.7213ZM87.7213 106.088V106.639L85.4059 106.43C85.6843 106.43 85.9753 106.411 86.2789 106.373C86.5952 106.335 86.8863 106.291 87.152 106.24C87.4177 106.19 87.6075 106.139 87.7213 106.088ZM81.667 118.349V119.734H80.1487V119.545C80.1487 119.545 80.1867 119.545 80.2626 119.545C80.3511 119.545 80.3954 119.545 80.3954 119.545C80.7244 119.545 81.0028 119.431 81.2305 119.203C81.4709 118.962 81.5974 118.678 81.6101 118.349H81.667ZM82.7868 118.349H82.8437C82.8564 118.678 82.9766 118.962 83.2043 119.203C83.4447 119.431 83.7294 119.545 84.0584 119.545C84.0584 119.545 84.0963 119.545 84.1723 119.545C84.2608 119.545 84.3051 119.545 84.3051 119.545V119.734H82.7868V118.349ZM78.042 106.942V106.999C77.7257 107.012 77.46 107.126 77.2449 107.341C77.0298 107.556 76.9223 107.822 76.9223 108.138V108.461L76.7325 108.48V106.942H78.042ZM76.7325 106.088C76.859 106.139 77.0488 106.19 77.3018 106.24C77.5675 106.291 77.8586 106.335 78.1749 106.373C78.4912 106.411 78.7822 106.43 79.0479 106.43L76.7325 106.639V106.088Z" fill="#F7FEFF"/>
<path d="M91.6341 106.449V119.734H90.4005V106.449H91.6341ZM96.7585 119.146V119.734H91.5772V119.146H96.7585ZM95.9424 112.902V113.471H91.5772V112.902H95.9424ZM96.7585 106.449V107.037H91.5772V106.449H96.7585ZM97.9162 116.66L96.8154 119.734H93.6649L94.3481 119.146C95.0187 119.146 95.5628 119.045 95.9803 118.842C96.4105 118.627 96.7585 118.33 97.0242 117.95C97.2899 117.571 97.524 117.14 97.7264 116.66H97.9162ZM95.9424 113.433V114.686H95.7526V114.401C95.7526 114.148 95.664 113.933 95.4869 113.756C95.3097 113.566 95.0946 113.471 94.8416 113.471V113.433H95.9424ZM95.9424 111.687V112.94H94.8416V112.902C95.0946 112.889 95.3097 112.794 95.4869 112.617C95.664 112.427 95.7526 112.206 95.7526 111.953V111.687H95.9424ZM96.7585 106.98V108.499H96.5687V108.157C96.5687 107.853 96.4611 107.594 96.246 107.379C96.0309 107.151 95.7652 107.031 95.4489 107.018V106.98H96.7585ZM96.7585 106.107V106.658L94.443 106.449C94.7214 106.449 95.0124 106.43 95.3161 106.392C95.6324 106.354 95.9234 106.31 96.1891 106.259C96.4548 106.209 96.6446 106.158 96.7585 106.107ZM90.4574 118.349V119.734H88.9391V119.545C88.9391 119.545 88.9771 119.545 89.053 119.545C89.1416 119.545 89.1858 119.545 89.1858 119.545C89.5148 119.545 89.7932 119.431 90.0209 119.203C90.2613 118.962 90.3878 118.678 90.4005 118.349H90.4574ZM90.4574 107.834H90.4005C90.4005 107.505 90.2803 107.227 90.0399 106.999C89.7995 106.759 89.5148 106.639 89.1858 106.639C89.1858 106.639 89.1479 106.639 89.072 106.639C88.996 106.639 88.9581 106.639 88.9581 106.639L88.9391 106.449H90.4574V107.834Z" fill="#F7FEFF"/>
<path d="M2.60737 86.4563V95.3635H1.78027V86.4563H2.60737ZM1.81845 94.4346V95.3635H0.800479V95.2362C0.800479 95.2362 0.825928 95.2362 0.876826 95.2362C0.936207 95.2362 0.965898 95.2362 0.965898 95.2362C1.18646 95.2362 1.37308 95.1599 1.52578 95.0072C1.68696 94.846 1.77179 94.6552 1.78027 94.4346H1.81845ZM1.81845 87.3852H1.78027C1.77179 87.1646 1.68696 86.978 1.52578 86.8253C1.37308 86.6641 1.18646 86.5835 0.965898 86.5835C0.965898 86.5835 0.936207 86.5835 0.876826 86.5835C0.825928 86.5835 0.800479 86.5835 0.800479 86.5835V86.4563H1.81845V87.3852ZM2.5692 94.4346H2.60737C2.61585 94.6552 2.69644 94.846 2.84914 95.0072C3.01031 95.1599 3.20118 95.2362 3.42174 95.2362C3.42174 95.2362 3.44719 95.2362 3.49809 95.2362C3.54899 95.2362 3.57868 95.2362 3.58716 95.2362V95.3635H2.5692V94.4346ZM2.5692 87.3852V86.4563H3.58716V86.5835C3.57868 86.5835 3.54899 86.5835 3.49809 86.5835C3.44719 86.5835 3.42174 86.5835 3.42174 86.5835C3.20118 86.5835 3.01031 86.6641 2.84914 86.8253C2.69644 86.978 2.61585 87.1646 2.60737 87.3852H2.5692Z" fill="#F7FEFF"/>
<path d="M5.74895 86.2654L13.1419 94.1547L13.2565 95.5416L5.86347 87.6651L5.74895 86.2654ZM5.7744 94.46V95.3635H4.71826V95.2362C4.71826 95.2362 4.75643 95.2362 4.83278 95.2362C4.90913 95.2362 4.95154 95.2362 4.96003 95.2362C5.1721 95.2362 5.35449 95.1599 5.50718 95.0072C5.65988 94.8545 5.73622 94.6721 5.73622 94.46H5.7744ZM6.32156 94.46C6.32156 94.6721 6.3979 94.8545 6.5506 95.0072C6.70329 95.1599 6.88568 95.2362 7.09776 95.2362C7.10624 95.2362 7.14865 95.2362 7.225 95.2362C7.30135 95.2362 7.33952 95.2362 7.33952 95.2362V95.3635H6.28338V94.46H6.32156ZM5.74895 86.2654L6.30883 86.978L6.32156 95.3635H5.73622V87.856C5.73622 87.4234 5.71502 87.0501 5.6726 86.7362C5.63867 86.4224 5.6217 86.2654 5.6217 86.2654H5.74895ZM13.2565 86.4563V93.9129C13.2565 94.1843 13.2649 94.4473 13.2819 94.7018C13.2989 94.9478 13.3158 95.1514 13.3328 95.3126C13.3583 95.4653 13.371 95.5416 13.371 95.5416H13.2565L12.6838 94.8672V86.4563H13.2565ZM14.2744 86.4563V86.5835C14.2744 86.5835 14.2362 86.5835 14.1599 86.5835C14.0836 86.5835 14.0454 86.5835 14.0454 86.5835C13.8333 86.5835 13.6509 86.6599 13.4982 86.8126C13.3455 86.9568 13.2649 87.1392 13.2565 87.3597H13.2183V86.4563H14.2744ZM11.6532 86.4563H12.7093V87.3597H12.6838C12.6754 87.1392 12.5948 86.9568 12.4421 86.8126C12.2979 86.6599 12.1155 86.5835 11.8949 86.5835C11.8949 86.5835 11.8568 86.5835 11.7804 86.5835C11.7041 86.5835 11.6616 86.5835 11.6532 86.5835V86.4563Z" fill="#F7FEFF"/>
<path d="M19.6067 86.4563C20.5144 86.4563 21.3076 86.6429 21.9862 87.0162C22.6733 87.3809 23.2078 87.8984 23.5895 88.5686C23.9797 89.2387 24.1748 90.0192 24.1748 90.9099C24.1748 91.8006 23.9797 92.5811 23.5895 93.2512C23.2078 93.9129 22.6733 94.4304 21.9862 94.8036C21.3076 95.1769 20.5144 95.3635 19.6067 95.3635H16.8837L16.8709 94.9818C16.8709 94.9818 16.96 94.9818 17.1381 94.9818C17.3248 94.9818 17.5538 94.9818 17.8253 94.9818C18.1052 94.9818 18.3809 94.9818 18.6524 94.9818C18.9238 94.9818 19.1486 94.9818 19.3268 94.9818C19.5134 94.9818 19.6067 94.9818 19.6067 94.9818C20.3363 94.9818 20.9682 94.8121 21.5027 94.4728C22.0456 94.1335 22.4655 93.6584 22.7624 93.0476C23.0678 92.4368 23.2205 91.7243 23.2205 90.9099C23.2205 90.0955 23.0678 89.3829 22.7624 88.7722C22.4655 88.1614 22.0456 87.6863 21.5027 87.347C20.9598 87.0077 20.3278 86.838 19.6067 86.838C19.6067 86.838 19.5092 86.838 19.3141 86.838C19.1274 86.838 18.8899 86.838 18.6015 86.838C18.3215 86.838 18.0374 86.838 17.7489 86.838C17.469 86.838 17.2315 86.838 17.0364 86.838C16.8412 86.838 16.7437 86.838 16.7437 86.838V86.4563H19.6067ZM17.1 86.4563V95.3635H16.2729V86.4563H17.1ZM16.311 94.4346V95.3635H15.2931V95.2362C15.2931 95.2362 15.3185 95.2362 15.3694 95.2362C15.4288 95.2362 15.4585 95.2362 15.4585 95.2362C15.6791 95.2362 15.8657 95.1599 16.0184 95.0072C16.1796 94.846 16.2644 94.6552 16.2729 94.4346H16.311ZM16.311 87.3852H16.2729C16.2729 87.1646 16.1923 86.978 16.0311 86.8253C15.8699 86.6641 15.6791 86.5835 15.4585 86.5835C15.4585 86.5835 15.4331 86.5835 15.3822 86.5835C15.3313 86.5835 15.3058 86.5835 15.3058 86.5835L15.2931 86.4563H16.311V87.3852Z" fill="#F7FEFF"/>
<path d="M26.9247 86.4563V95.3635H26.0976V86.4563H26.9247ZM30.3604 94.969V95.3635H26.8866V94.969H30.3604ZM29.8132 90.7826V91.1644H26.8866V90.7826H29.8132ZM30.3604 86.4563V86.8507H26.8866V86.4563H30.3604ZM31.1366 93.3021L30.3986 95.3635H28.2863L28.7444 94.969C29.194 94.969 29.5587 94.9012 29.8387 94.7654C30.1271 94.6212 30.3604 94.4219 30.5385 94.1674C30.7167 93.9129 30.8736 93.6245 31.0093 93.3021H31.1366ZM29.8132 91.1389V91.9788H29.686V91.7879C29.686 91.6182 29.6266 91.474 29.5078 91.3553C29.3891 91.228 29.2449 91.1644 29.0752 91.1644V91.1389H29.8132ZM29.8132 89.9683V90.8081H29.0752V90.7826C29.2449 90.7742 29.3891 90.7105 29.5078 90.5918C29.6266 90.4645 29.686 90.3161 29.686 90.1464V89.9683H29.8132ZM30.3604 86.8126V87.8305H30.2331V87.6015C30.2331 87.3979 30.161 87.224 30.0168 87.0798C29.8726 86.9271 29.6945 86.8465 29.4824 86.838V86.8126H30.3604ZM30.3604 86.2272V86.5963L28.808 86.4563C28.9946 86.4563 29.1897 86.4436 29.3933 86.4181C29.6054 86.3927 29.8005 86.363 29.9786 86.329C30.1568 86.2951 30.284 86.2612 30.3604 86.2272ZM26.1358 94.4346V95.3635H25.1179V95.2362C25.1179 95.2362 25.1433 95.2362 25.1942 95.2362C25.2536 95.2362 25.2833 95.2362 25.2833 95.2362C25.5038 95.2362 25.6905 95.1599 25.8432 95.0072C26.0043 94.846 26.0892 94.6552 26.0976 94.4346H26.1358ZM26.1358 87.3852H26.0976C26.0976 87.1646 26.0171 86.978 25.8559 86.8253C25.6947 86.6641 25.5038 86.5835 25.2833 86.5835C25.2833 86.5835 25.2578 86.5835 25.2069 86.5835C25.156 86.5835 25.1306 86.5835 25.1306 86.5835L25.1179 86.4563H26.1358V87.3852Z" fill="#F7FEFF"/>
<path d="M33.7882 86.4563H35.4678C36.0107 86.4563 36.4773 86.5538 36.8675 86.749C37.2577 86.9441 37.5589 87.2282 37.771 87.6015C37.983 87.9663 38.0891 88.4032 38.0891 88.9121C38.0891 89.3024 38.0127 89.6544 37.86 89.9683C37.7073 90.2737 37.5037 90.5324 37.2493 90.7445C36.9948 90.9566 36.7063 91.1177 36.384 91.228C36.0616 91.3298 35.7265 91.368 35.3787 91.3425C35.0394 91.3171 34.7086 91.2195 34.3862 91.0499V90.9226C34.3862 90.9226 34.4583 90.9353 34.6025 90.9608C34.7468 90.9778 34.9291 90.982 35.1497 90.9735C35.3787 90.9565 35.6163 90.9099 35.8623 90.8335C36.1168 90.7487 36.35 90.6045 36.5621 90.4009C36.7827 90.1973 36.9481 89.9131 37.0584 89.5484C37.0838 89.455 37.105 89.3405 37.122 89.2048C37.139 89.0606 37.1432 88.9206 37.1347 88.7849C37.1262 88.1996 36.9736 87.7287 36.6766 87.3725C36.3797 87.0162 35.9598 86.838 35.4169 86.838H33.9154C33.9154 86.838 33.9027 86.8083 33.8772 86.749C33.8603 86.6811 33.8391 86.6175 33.8136 86.5581C33.7967 86.4902 33.7882 86.4563 33.7882 86.4563ZM33.9536 86.4563V95.3635H33.1265V86.4563H33.9536ZM33.1647 94.4346V95.3635H32.1467V95.2362C32.1467 95.2362 32.1721 95.2362 32.223 95.2362C32.2824 95.2362 32.3121 95.2362 32.3121 95.2362C32.5327 95.2362 32.7193 95.1599 32.872 95.0072C33.0332 94.846 33.118 94.6552 33.1265 94.4346H33.1647ZM33.1647 87.3852H33.1265C33.1265 87.1646 33.0459 86.978 32.8847 86.8253C32.7235 86.6641 32.5327 86.5835 32.3121 86.5835C32.3121 86.5835 32.2867 86.5835 32.2358 86.5835C32.1849 86.5835 32.1594 86.5835 32.1594 86.5835L32.1467 86.4563H33.1647V87.3852ZM33.9154 94.4346H33.9536C33.9621 94.6552 34.0427 94.846 34.1954 95.0072C34.3565 95.1599 34.5474 95.2362 34.768 95.2362C34.768 95.2362 34.7934 95.2362 34.8443 95.2362C34.9037 95.2362 34.9334 95.2362 34.9334 95.2362V95.3635H33.9154V94.4346Z" fill="#F7FEFF"/>
<path d="M41.0446 86.4563V95.3635H40.2175V86.4563H41.0446ZM44.4802 94.969V95.3635H41.0064V94.969H44.4802ZM43.933 90.7826V91.1644H41.0064V90.7826H43.933ZM44.4802 86.4563V86.8507H41.0064V86.4563H44.4802ZM45.2564 93.3021L44.5184 95.3635H42.4061L42.8642 94.969C43.3138 94.969 43.6785 94.9012 43.9585 94.7654C44.2469 94.6212 44.4802 94.4219 44.6583 94.1674C44.8365 93.9129 44.9934 93.6245 45.1291 93.3021H45.2564ZM43.933 91.1389V91.9788H43.8058V91.7879C43.8058 91.6182 43.7464 91.474 43.6276 91.3553C43.5089 91.228 43.3647 91.1644 43.195 91.1644V91.1389H43.933ZM43.933 89.9683V90.8081H43.195V90.7826C43.3647 90.7742 43.5089 90.7105 43.6276 90.5918C43.7464 90.4645 43.8058 90.3161 43.8058 90.1464V89.9683H43.933ZM44.4802 86.8126V87.8305H44.3529V87.6015C44.3529 87.3979 44.2808 87.224 44.1366 87.0798C43.9924 86.9271 43.8143 86.8465 43.6022 86.838V86.8126H44.4802ZM44.4802 86.2272V86.5963L42.9278 86.4563C43.1144 86.4563 43.3095 86.4436 43.5131 86.4181C43.7252 86.3927 43.9203 86.363 44.0985 86.329C44.2766 86.2951 44.4038 86.2612 44.4802 86.2272ZM40.2556 94.4346V95.3635H39.2377V95.2362C39.2377 95.2362 39.2631 95.2362 39.314 95.2362C39.3734 95.2362 39.4031 95.2362 39.4031 95.2362C39.6236 95.2362 39.8103 95.1599 39.963 95.0072C40.1241 94.846 40.209 94.6552 40.2175 94.4346H40.2556ZM40.2556 87.3852H40.2175C40.2175 87.1646 40.1369 86.978 39.9757 86.8253C39.8145 86.6641 39.6236 86.5835 39.4031 86.5835C39.4031 86.5835 39.3776 86.5835 39.3267 86.5835C39.2758 86.5835 39.2504 86.5835 39.2504 86.5835L39.2377 86.4563H40.2556V87.3852Z" fill="#F7FEFF"/>
<path d="M47.1063 86.2654L54.4993 94.1547L54.6138 95.5416L47.2209 87.6651L47.1063 86.2654ZM47.1318 94.46V95.3635H46.0756V95.2362C46.0756 95.2362 46.1138 95.2362 46.1902 95.2362C46.2665 95.2362 46.3089 95.2362 46.3174 95.2362C46.5295 95.2362 46.7119 95.1599 46.8646 95.0072C47.0173 94.8545 47.0936 94.6721 47.0936 94.46H47.1318ZM47.6789 94.46C47.6789 94.6721 47.7553 94.8545 47.908 95.0072C48.0607 95.1599 48.2431 95.2362 48.4551 95.2362C48.4636 95.2362 48.506 95.2362 48.5824 95.2362C48.6587 95.2362 48.6969 95.2362 48.6969 95.2362V95.3635H47.6408V94.46H47.6789ZM47.1063 86.2654L47.6662 86.978L47.6789 95.3635H47.0936V87.856C47.0936 87.4234 47.0724 87.0501 47.03 86.7362C46.996 86.4224 46.9791 86.2654 46.9791 86.2654H47.1063ZM54.6138 86.4563V93.9129C54.6138 94.1843 54.6223 94.4473 54.6393 94.7018C54.6563 94.9478 54.6732 95.1514 54.6902 95.3126C54.7156 95.4653 54.7284 95.5416 54.7284 95.5416H54.6138L54.0412 94.8672V86.4563H54.6138ZM55.6318 86.4563V86.5835C55.6318 86.5835 55.5936 86.5835 55.5173 86.5835C55.4409 86.5835 55.4028 86.5835 55.4028 86.5835C55.1907 86.5835 55.0083 86.6599 54.8556 86.8126C54.7029 86.9568 54.6223 87.1392 54.6138 87.3597H54.5757V86.4563H55.6318ZM53.0105 86.4563H54.0667V87.3597H54.0412C54.0327 87.1392 53.9522 86.9568 53.7995 86.8126C53.6552 86.6599 53.4729 86.5835 53.2523 86.5835C53.2523 86.5835 53.2141 86.5835 53.1378 86.5835C53.0614 86.5835 53.019 86.5835 53.0105 86.5835V86.4563Z" fill="#F7FEFF"/>
<path d="M60.9641 86.4563C61.8718 86.4563 62.6649 86.6429 63.3436 87.0162C64.0307 87.3809 64.5652 87.8984 64.9469 88.5686C65.3371 89.2387 65.5322 90.0192 65.5322 90.9099C65.5322 91.8006 65.3371 92.5811 64.9469 93.2512C64.5652 93.9129 64.0307 94.4304 63.3436 94.8036C62.6649 95.1769 61.8718 95.3635 60.9641 95.3635H58.241L58.2283 94.9818C58.2283 94.9818 58.3174 94.9818 58.4955 94.9818C58.6822 94.9818 58.9112 94.9818 59.1827 94.9818C59.4626 94.9818 59.7383 94.9818 60.0097 94.9818C60.2812 94.9818 60.506 94.9818 60.6842 94.9818C60.8708 94.9818 60.9641 94.9818 60.9641 94.9818C61.6936 94.9818 62.3256 94.8121 62.8601 94.4728C63.403 94.1335 63.8229 93.6584 64.1198 93.0476C64.4252 92.4368 64.5779 91.7243 64.5779 90.9099C64.5779 90.0955 64.4252 89.3829 64.1198 88.7722C63.8229 88.1614 63.403 87.6863 62.8601 87.347C62.3171 87.0077 61.6852 86.838 60.9641 86.838C60.9641 86.838 60.8665 86.838 60.6714 86.838C60.4848 86.838 60.2473 86.838 59.9589 86.838C59.6789 86.838 59.3947 86.838 59.1063 86.838C58.8264 86.838 58.5888 86.838 58.3937 86.838C58.1986 86.838 58.1011 86.838 58.1011 86.838V86.4563H60.9641ZM58.4574 86.4563V95.3635H57.6303V86.4563H58.4574ZM57.6684 94.4346V95.3635H56.6505V95.2362C56.6505 95.2362 56.6759 95.2362 56.7268 95.2362C56.7862 95.2362 56.8159 95.2362 56.8159 95.2362C57.0364 95.2362 57.2231 95.1599 57.3758 95.0072C57.5369 94.846 57.6218 94.6552 57.6303 94.4346H57.6684ZM57.6684 87.3852H57.6303C57.6303 87.1646 57.5497 86.978 57.3885 86.8253C57.2273 86.6641 57.0364 86.5835 56.8159 86.5835C56.8159 86.5835 56.7904 86.5835 56.7395 86.5835C56.6886 86.5835 56.6632 86.5835 56.6632 86.5835L56.6505 86.4563H57.6684V87.3852Z" fill="#F7FEFF"/>
<path d="M68.2821 86.4563V95.3635H67.455V86.4563H68.2821ZM71.7178 94.969V95.3635H68.244V94.969H71.7178ZM71.1706 90.7826V91.1644H68.244V90.7826H71.1706ZM71.7178 86.4563V86.8507H68.244V86.4563H71.7178ZM72.494 93.3021L71.7559 95.3635H69.6437L70.1017 94.969C70.5513 94.969 70.9161 94.9012 71.1961 94.7654C71.4845 94.6212 71.7178 94.4219 71.8959 94.1674C72.0741 93.9129 72.231 93.6245 72.3667 93.3021H72.494ZM71.1706 91.1389V91.9788H71.0434V91.7879C71.0434 91.6182 70.984 91.474 70.8652 91.3553C70.7465 91.228 70.6022 91.1644 70.4326 91.1644V91.1389H71.1706ZM71.1706 89.9683V90.8081H70.4326V90.7826C70.6022 90.7742 70.7465 90.7105 70.8652 90.5918C70.984 90.4645 71.0434 90.3161 71.0434 90.1464V89.9683H71.1706ZM71.7178 86.8126V87.8305H71.5905V87.6015C71.5905 87.3979 71.5184 87.224 71.3742 87.0798C71.23 86.9271 71.0518 86.8465 70.8398 86.838V86.8126H71.7178ZM71.7178 86.2272V86.5963L70.1654 86.4563C70.352 86.4563 70.5471 86.4436 70.7507 86.4181C70.9628 86.3927 71.1579 86.363 71.336 86.329C71.5142 86.2951 71.6414 86.2612 71.7178 86.2272ZM67.4932 94.4346V95.3635H66.4752V95.2362C66.4752 95.2362 66.5007 95.2362 66.5516 95.2362C66.611 95.2362 66.6407 95.2362 66.6407 95.2362C66.8612 95.2362 67.0478 95.1599 67.2005 95.0072C67.3617 94.846 67.4465 94.6552 67.455 94.4346H67.4932ZM67.4932 87.3852H67.455C67.455 87.1646 67.3744 86.978 67.2133 86.8253C67.0521 86.6641 66.8612 86.5835 66.6407 86.5835C66.6407 86.5835 66.6152 86.5835 66.5643 86.5835C66.5134 86.5835 66.488 86.5835 66.488 86.5835L66.4752 86.4563H67.4932V87.3852Z" fill="#F7FEFF"/>
<path d="M74.3439 86.2654L81.7369 94.1547L81.8514 95.5416L74.4584 87.6651L74.3439 86.2654ZM74.3693 94.46V95.3635H73.3132V95.2362C73.3132 95.2362 73.3514 95.2362 73.4277 95.2362C73.5041 95.2362 73.5465 95.2362 73.555 95.2362C73.767 95.2362 73.9494 95.1599 74.1021 95.0072C74.2548 94.8545 74.3312 94.6721 74.3312 94.46H74.3693ZM74.9165 94.46C74.9165 94.6721 74.9928 94.8545 75.1455 95.0072C75.2982 95.1599 75.4806 95.2362 75.6927 95.2362C75.7012 95.2362 75.7436 95.2362 75.82 95.2362C75.8963 95.2362 75.9345 95.2362 75.9345 95.2362V95.3635H74.8783V94.46H74.9165ZM74.3439 86.2654L74.9038 86.978L74.9165 95.3635H74.3312V87.856C74.3312 87.4234 74.31 87.0501 74.2676 86.7362C74.2336 86.4224 74.2166 86.2654 74.2166 86.2654H74.3439ZM81.8514 86.4563V93.9129C81.8514 94.1843 81.8599 94.4473 81.8768 94.7018C81.8938 94.9478 81.9108 95.1514 81.9278 95.3126C81.9532 95.4653 81.9659 95.5416 81.9659 95.5416H81.8514L81.2788 94.8672V86.4563H81.8514ZM82.8694 86.4563V86.5835C82.8694 86.5835 82.8312 86.5835 82.7548 86.5835C82.6785 86.5835 82.6403 86.5835 82.6403 86.5835C82.4282 86.5835 82.2459 86.6599 82.0932 86.8126C81.9405 86.9568 81.8599 87.1392 81.8514 87.3597H81.8132V86.4563H82.8694ZM80.2481 86.4563H81.3042V87.3597H81.2788C81.2703 87.1392 81.1897 86.9568 81.037 86.8126C80.8928 86.6599 80.7104 86.5835 80.4899 86.5835C80.4899 86.5835 80.4517 86.5835 80.3753 86.5835C80.299 86.5835 80.2566 86.5835 80.2481 86.5835V86.4563Z" fill="#F7FEFF"/>
<path d="M87.6006 86.4945V95.3635H86.7735V86.4945H87.6006ZM90.8708 86.4436V86.8253H83.5033V86.4436H90.8708ZM90.8708 86.7871V87.8178L90.7436 87.8051V87.5888C90.7436 87.3767 90.6672 87.1986 90.5146 87.0543C90.3703 86.9101 90.1964 86.8338 89.9928 86.8253V86.7871H90.8708ZM90.8708 86.2145V86.5835L89.3184 86.4436C89.5051 86.4436 89.7002 86.4308 89.9038 86.4054C90.1158 86.3799 90.311 86.3503 90.4891 86.3163C90.6673 86.2824 90.7945 86.2485 90.8708 86.2145ZM86.8117 94.4346V95.3635H85.7937V95.2362C85.7937 95.2362 85.8192 95.2362 85.8701 95.2362C85.9295 95.2362 85.9592 95.2362 85.9592 95.2362C86.1797 95.2362 86.3663 95.1599 86.519 95.0072C86.6802 94.846 86.765 94.6552 86.7735 94.4346H86.8117ZM87.5625 94.4346H87.6006C87.6091 94.6552 87.6897 94.846 87.8424 95.0072C88.0036 95.1599 88.1944 95.2362 88.415 95.2362C88.415 95.2362 88.4404 95.2362 88.4913 95.2362C88.5507 95.2362 88.5804 95.2362 88.5804 95.2362V95.3635H87.5625V94.4346ZM84.3813 86.7871V86.8253C84.1692 86.8338 83.9911 86.9101 83.8469 87.0543C83.7027 87.1986 83.6306 87.3767 83.6306 87.5888V87.8051L83.5033 87.8178V86.7871H84.3813ZM83.5033 86.2145C83.5881 86.2485 83.7154 86.2824 83.885 86.3163C84.0632 86.3503 84.2583 86.3799 84.4704 86.4054C84.6825 86.4308 84.8776 86.4436 85.0557 86.4436L83.5033 86.5835V86.2145Z" fill="#F7FEFF"/>
<path d="M93.4942 86.4563V95.3635H92.6671V86.4563H93.4942ZM96.9298 94.969V95.3635H93.456V94.969H96.9298ZM96.3827 90.7826V91.1644H93.456V90.7826H96.3827ZM96.9298 86.4563V86.8507H93.456V86.4563H96.9298ZM97.706 93.3021L96.968 95.3635H94.8557L95.3138 94.969C95.7634 94.969 96.1282 94.9012 96.4081 94.7654C96.6966 94.6212 96.9298 94.4219 97.108 94.1674C97.2861 93.9129 97.4431 93.6245 97.5788 93.3021H97.706ZM96.3827 91.1389V91.9788H96.2554V91.7879C96.2554 91.6182 96.1961 91.474 96.0773 91.3553C95.9585 91.228 95.8143 91.1644 95.6447 91.1644V91.1389H96.3827ZM96.3827 89.9683V90.8081H95.6447V90.7826C95.8143 90.7742 95.9585 90.7105 96.0773 90.5918C96.1961 90.4645 96.2554 90.3161 96.2554 90.1464V89.9683H96.3827ZM96.9298 86.8126V87.8305H96.8026V87.6015C96.8026 87.3979 96.7305 87.224 96.5863 87.0798C96.4421 86.9271 96.2639 86.8465 96.0518 86.838V86.8126H96.9298ZM96.9298 86.2272V86.5963L95.3774 86.4563C95.5641 86.4563 95.7592 86.4436 95.9628 86.4181C96.1748 86.3927 96.37 86.363 96.5481 86.329C96.7262 86.2951 96.8535 86.2612 96.9298 86.2272ZM92.7053 94.4346V95.3635H91.6873V95.2362C91.6873 95.2362 91.7128 95.2362 91.7637 95.2362C91.823 95.2362 91.8527 95.2362 91.8527 95.2362C92.0733 95.2362 92.2599 95.1599 92.4126 95.0072C92.5738 94.846 92.6586 94.6552 92.6671 94.4346H92.7053ZM92.7053 87.3852H92.6671C92.6671 87.1646 92.5865 86.978 92.4253 86.8253C92.2642 86.6641 92.0733 86.5835 91.8527 86.5835C91.8527 86.5835 91.8273 86.5835 91.7764 86.5835C91.7255 86.5835 91.7 86.5835 91.7 86.5835L91.6873 86.4563H92.7053V87.3852Z" fill="#F7FEFF"/>
<path d="M3.56538 65.8166H6.30871C7.51647 65.8166 8.53444 65.9978 9.36261 66.3601C10.208 66.7224 10.8464 67.2314 11.2778 67.887C11.7091 68.5254 11.9248 69.276 11.9248 70.1386C11.9248 70.8633 11.7868 71.5017 11.5107 72.0538C11.2346 72.5887 10.8809 73.0286 10.4496 73.3737C10.0183 73.7015 9.56103 73.9344 9.07793 74.0725C9.99237 74.2105 10.7774 74.5124 11.4331 74.9783C12.1059 75.4441 12.6149 76.0308 12.96 76.7382C13.3223 77.4283 13.5035 78.2047 13.5035 79.0674C13.5035 80.0336 13.2706 80.8877 12.8047 81.6296C12.3389 82.3542 11.6487 82.9236 10.7343 83.3377C9.83709 83.7345 8.75011 83.9329 7.47334 83.9329H4.6006C4.6006 83.9329 4.6006 83.8553 4.6006 83.7C4.61785 83.5447 4.62648 83.3895 4.62648 83.2342C4.62648 83.0789 4.62648 83.0012 4.62648 83.0012H7.36981C8.26701 83.0012 9.02617 82.846 9.6473 82.5354C10.2684 82.2076 10.7429 81.7331 11.0707 81.112C11.3985 80.4908 11.5625 79.7489 11.5625 78.8862C11.5625 77.92 11.3727 77.135 10.9931 76.5311C10.6308 75.9272 10.1563 75.47 9.56966 75.1595C8.98303 74.8489 8.34465 74.6418 7.6545 74.5383C6.98161 74.4175 6.33459 74.3572 5.71346 74.3572V74.1242C6.1103 74.1242 6.55026 74.0811 7.03337 73.9948C7.51647 73.9086 7.98232 73.736 8.43092 73.4772C8.87951 73.2184 9.25046 72.8388 9.54378 72.3385C9.83709 71.8209 9.98375 71.148 9.98375 70.3198C9.98375 69.5434 9.83709 68.8791 9.54378 68.327C9.26772 67.7749 8.845 67.3608 8.27563 67.0847C7.72351 66.7914 7.03337 66.6448 6.20519 66.6448H3.82418C3.82418 66.6275 3.7983 66.5585 3.74654 66.4377C3.71204 66.2997 3.6689 66.1617 3.61714 66.0236C3.58263 65.8856 3.56538 65.8166 3.56538 65.8166ZM4.83352 65.8166V83.9329H3.15129V65.8166H4.83352ZM3.22893 82.0437V83.9329H1.15849L1.18437 83.6741C1.21888 83.6741 1.27064 83.6741 1.33966 83.6741C1.42592 83.6741 1.47769 83.6741 1.49494 83.6741C1.94353 83.6741 2.33174 83.5189 2.65956 83.2083C2.98738 82.8805 3.15129 82.4923 3.15129 82.0437H3.22893ZM3.22893 67.7059H3.15129C3.15129 67.2573 2.98738 66.8777 2.65956 66.5671C2.33174 66.2393 1.94353 66.0754 1.49494 66.0754C1.47769 66.0754 1.42592 66.0754 1.33966 66.0754C1.27064 66.0754 1.21888 66.0754 1.18437 66.0754L1.15849 65.8166H3.22893V67.7059Z" fill="#F7FEFF"/>
<path d="M23.6729 65.4543L31.3335 83.7777H29.1337L23.1553 67.9129L23.6729 65.4543ZM18.1086 82.0437C17.9878 82.3887 17.9706 82.6821 18.0568 82.9236C18.1431 83.1652 18.2811 83.3549 18.4709 83.493C18.678 83.6137 18.885 83.6741 19.0921 83.6741H19.325V83.9329H14.123V83.6741C14.123 83.6741 14.1661 83.6741 14.2524 83.6741C14.3214 83.6741 14.3559 83.6741 14.3559 83.6741C14.7528 83.6741 15.1582 83.5534 15.5723 83.3118C16.0037 83.053 16.3574 82.6303 16.6334 82.0437H18.1086ZM23.6729 65.4543L23.9058 67.2659L17.4098 83.8553H15.857L22.4824 68.12C22.4824 68.12 22.5255 68.0164 22.6118 67.8094C22.7153 67.5851 22.8275 67.3177 22.9483 67.0071C23.0863 66.6965 23.1984 66.3946 23.2847 66.1013C23.3882 65.808 23.44 65.5923 23.44 65.4543H23.6729ZM27.3221 76.8676V77.644H19.2215V76.8676H27.3221ZM28.4867 82.0437H30.6089C30.8677 82.6303 31.2128 83.053 31.6441 83.3118C32.0755 83.5534 32.4895 83.6741 32.8864 83.6741C32.8864 83.6741 32.9209 83.6741 32.9899 83.6741C33.0589 83.6741 33.0934 83.6741 33.0934 83.6741V83.9329H27.2703V83.6741H27.5032C27.8311 83.6741 28.1244 83.5361 28.3832 83.26C28.642 82.9667 28.6765 82.5613 28.4867 82.0437Z" fill="#F7FEFF"/>
<path d="M39.4497 65.8942V83.9329H37.7675V65.8942H39.4497ZM46.101 65.7907V66.5671H31.1162V65.7907H46.101ZM46.101 66.4895V68.5858L45.8422 68.5599V68.12C45.8422 67.6886 45.6869 67.3263 45.3763 67.033C45.083 66.7397 44.7293 66.5844 44.3152 66.5671V66.4895H46.101ZM46.101 65.3249V66.0754L42.9436 65.7907C43.3232 65.7907 43.72 65.7648 44.1341 65.7131C44.5654 65.6613 44.9623 65.6009 45.3246 65.5319C45.6869 65.4629 45.9457 65.3939 46.101 65.3249ZM37.8451 82.0437V83.9329H35.7747V83.6741C35.7747 83.6741 35.8264 83.6741 35.93 83.6741C36.0507 83.6741 36.1111 83.6741 36.1111 83.6741C36.5597 83.6741 36.9393 83.5189 37.2499 83.2083C37.5777 82.8805 37.7502 82.4923 37.7675 82.0437H37.8451ZM39.3721 82.0437H39.4497C39.467 82.4923 39.6309 82.8805 39.9414 83.2083C40.2693 83.5189 40.6575 83.6741 41.1061 83.6741C41.1061 83.6741 41.1578 83.6741 41.2613 83.6741C41.3821 83.6741 41.4425 83.6741 41.4425 83.6741V83.9329H39.3721V82.0437ZM32.9019 66.4895V66.5671C32.4706 66.5844 32.1083 66.7397 31.815 67.033C31.5216 67.3263 31.375 67.6886 31.375 68.12V68.5599L31.1162 68.5858V66.4895H32.9019ZM31.1162 65.3249C31.2887 65.3939 31.5475 65.4629 31.8926 65.5319C32.2549 65.6009 32.6518 65.6613 33.0831 65.7131C33.5145 65.7648 33.9113 65.7907 34.2736 65.7907L31.1162 66.0754V65.3249Z" fill="#F7FEFF"/>
<path d="M51.4366 65.8166V83.9329H49.7544V65.8166H51.4366ZM49.832 82.0437V83.9329H47.7616V83.6741C47.7616 83.6741 47.8134 83.6741 47.9169 83.6741C48.0377 83.6741 48.0981 83.6741 48.0981 83.6741C48.5466 83.6741 48.9262 83.5189 49.2368 83.2083C49.5646 82.8805 49.7371 82.4923 49.7544 82.0437H49.832ZM49.832 67.7059H49.7544C49.7371 67.2573 49.5646 66.8777 49.2368 66.5671C48.9262 66.2393 48.5466 66.0754 48.0981 66.0754C48.0981 66.0754 48.0377 66.0754 47.9169 66.0754C47.8134 66.0754 47.7616 66.0754 47.7616 66.0754V65.8166H49.832V67.7059ZM51.359 82.0437H51.4366C51.4539 82.4923 51.6178 82.8805 51.9284 83.2083C52.2562 83.5189 52.6444 83.6741 53.093 83.6741C53.093 83.6741 53.1447 83.6741 53.2483 83.6741C53.3518 83.6741 53.4122 83.6741 53.4294 83.6741V83.9329H51.359V82.0437ZM51.359 67.7059V65.8166H53.4294V66.0754C53.4122 66.0754 53.3518 66.0754 53.2483 66.0754C53.1447 66.0754 53.093 66.0754 53.093 66.0754C52.6444 66.0754 52.2562 66.2393 51.9284 66.5671C51.6178 66.8777 51.4539 67.2573 51.4366 67.7059H51.359Z" fill="#F7FEFF"/>
<path d="M61.0614 65.4543C61.3374 65.4543 61.6307 65.4715 61.9413 65.506C62.2691 65.5405 62.5797 65.5923 62.873 65.6613C63.1836 65.7131 63.4596 65.7735 63.7012 65.8425C63.96 65.8942 64.1584 65.9546 64.2964 66.0236V68.8964H64.0635C64.0635 68.0682 63.7788 67.4212 63.2094 66.9553C62.6401 66.4722 61.9499 66.2307 61.139 66.2307C60.19 66.2307 59.4223 66.5326 58.8356 67.1365C58.249 67.7231 57.9557 68.4133 57.9557 69.2069C57.9557 69.5348 58.0247 69.923 58.1627 70.3716C58.318 70.8029 58.5941 71.2084 58.9909 71.5879L64.0894 76.2982C64.607 76.7813 64.9521 77.2989 65.1246 77.851C65.2971 78.4031 65.3834 78.938 65.3834 79.4556C65.3834 80.8877 64.9434 82.0523 64.0635 82.9495C63.2008 83.8467 62.0276 84.2953 60.5437 84.2953C60.1297 84.2953 59.6379 84.2521 59.0686 84.1659C58.5164 84.0796 57.9729 83.9329 57.4381 83.7259C56.9205 83.5016 56.4891 83.2169 56.1441 82.8718C56.0923 82.5958 56.0664 82.2507 56.0664 81.8366C56.0664 81.4225 56.1009 80.9912 56.1699 80.5426C56.239 80.0767 56.3338 79.654 56.4546 79.2745H56.6876C56.6013 80.1544 56.7134 80.9222 57.024 81.5778C57.3346 82.2335 57.7832 82.7338 58.3698 83.0789C58.9737 83.4067 59.6552 83.5534 60.4143 83.5189C61.3633 83.4671 62.1742 83.1393 62.8471 82.5354C63.5373 81.9143 63.8823 81.0861 63.8823 80.0509C63.8823 79.5505 63.7961 79.1019 63.6235 78.7051C63.451 78.291 63.2008 77.9373 62.873 77.644L57.9039 73.0373C57.3863 72.5542 57.024 72.0279 56.817 71.4585C56.6099 70.8719 56.5064 70.3284 56.5064 69.8281C56.5064 69.1034 56.6789 68.4046 57.024 67.7318C57.3691 67.0589 57.8781 66.5154 58.5509 66.1013C59.2411 65.6699 60.0779 65.4543 61.0614 65.4543ZM64.2964 65.7131V66.2566H62.3295V65.7131H64.2964Z" fill="#F7FEFF"/>
<path d="M75.3114 65.8942V83.9329H73.6292V65.8942H75.3114ZM81.9627 65.7907V66.5671H66.9779V65.7907H81.9627ZM81.9627 66.4895V68.5858L81.7039 68.5599V68.12C81.7039 67.6886 81.5486 67.3263 81.238 67.033C80.9447 66.7397 80.591 66.5844 80.1769 66.5671V66.4895H81.9627ZM81.9627 65.3249V66.0754L78.8053 65.7907C79.1849 65.7907 79.5817 65.7648 79.9958 65.7131C80.4271 65.6613 80.824 65.6009 81.1863 65.5319C81.5486 65.4629 81.8074 65.3939 81.9627 65.3249ZM73.7068 82.0437V83.9329H71.6364V83.6741C71.6364 83.6741 71.6881 83.6741 71.7917 83.6741C71.9124 83.6741 71.9728 83.6741 71.9728 83.6741C72.4214 83.6741 72.801 83.5189 73.1116 83.2083C73.4394 82.8805 73.6119 82.4923 73.6292 82.0437H73.7068ZM75.2338 82.0437H75.3114C75.3287 82.4923 75.4926 82.8805 75.8031 83.2083C76.131 83.5189 76.5192 83.6741 76.9678 83.6741C76.9678 83.6741 77.0195 83.6741 77.123 83.6741C77.2438 83.6741 77.3042 83.6741 77.3042 83.6741V83.9329H75.2338V82.0437ZM68.7636 66.4895V66.5671C68.3323 66.5844 67.97 66.7397 67.6767 67.033C67.3833 67.3263 67.2367 67.6886 67.2367 68.12V68.5599L66.9779 68.5858V66.4895H68.7636ZM66.9779 65.3249C67.1504 65.3939 67.4092 65.4629 67.7543 65.5319C68.1166 65.6009 68.5135 65.6613 68.9448 65.7131C69.3761 65.7648 69.773 65.7907 70.1353 65.7907L66.9779 66.0754V65.3249Z" fill="#F7FEFF"/>
<path d="M89.5418 65.4543L97.2025 83.7777H95.0026L89.0242 67.9129L89.5418 65.4543ZM83.9775 82.0437C83.8568 82.3887 83.8395 82.6821 83.9258 82.9236C84.012 83.1652 84.1501 83.3549 84.3399 83.493C84.5469 83.6137 84.7539 83.6741 84.961 83.6741H85.1939V83.9329H79.9919V83.6741C79.9919 83.6741 80.0351 83.6741 80.1213 83.6741C80.1904 83.6741 80.2249 83.6741 80.2249 83.6741C80.6217 83.6741 81.0272 83.5534 81.4412 83.3118C81.8726 83.053 82.2263 82.6303 82.5023 82.0437H83.9775ZM89.5418 65.4543L89.7748 67.2659L83.2788 83.8553H81.7259L88.3513 68.12C88.3513 68.12 88.3945 68.0164 88.4807 67.8094C88.5843 67.5851 88.6964 67.3177 88.8172 67.0071C88.9552 66.6965 89.0674 66.3946 89.1536 66.1013C89.2572 65.808 89.3089 65.5923 89.3089 65.4543H89.5418ZM93.191 76.8676V77.644H85.0904V76.8676H93.191ZM94.3556 82.0437H96.4778C96.7366 82.6303 97.0817 83.053 97.513 83.3118C97.9444 83.5534 98.3585 83.6741 98.7553 83.6741C98.7553 83.6741 98.7898 83.6741 98.8588 83.6741C98.9278 83.6741 98.9624 83.6741 98.9624 83.6741V83.9329H93.1392V83.6741H93.3722C93.7 83.6741 93.9933 83.5361 94.2521 83.26C94.5109 82.9667 94.5454 82.5613 94.3556 82.0437Z" fill="#F7FEFF"/>
<path d="M39.9491 58.0524V62.5815H39.5285V58.0524H39.9491ZM39.5479 62.1092V62.5815H39.0303V62.5168C39.0303 62.5168 39.0432 62.5168 39.0691 62.5168C39.0993 62.5168 39.1144 62.5168 39.1144 62.5168C39.2266 62.5168 39.3215 62.478 39.3991 62.4004C39.4811 62.3184 39.5242 62.2214 39.5285 62.1092H39.5479ZM39.5479 58.5248H39.5285C39.5242 58.4126 39.4811 58.3177 39.3991 58.2401C39.3215 58.1581 39.2266 58.1171 39.1144 58.1171C39.1144 58.1171 39.0993 58.1171 39.0691 58.1171C39.0432 58.1171 39.0303 58.1171 39.0303 58.1171V58.0524H39.5479V58.5248ZM39.9296 62.1092H39.9491C39.9534 62.2214 39.9944 62.3184 40.072 62.4004C40.1539 62.478 40.251 62.5168 40.3631 62.5168C40.3631 62.5168 40.3761 62.5168 40.402 62.5168C40.4278 62.5168 40.4429 62.5168 40.4473 62.5168V62.5815H39.9296V62.1092ZM39.9296 58.5248V58.0524H40.4473V58.1171C40.4429 58.1171 40.4278 58.1171 40.402 58.1171C40.3761 58.1171 40.3631 58.1171 40.3631 58.1171C40.251 58.1171 40.1539 58.1581 40.072 58.2401C39.9944 58.3177 39.9534 58.4126 39.9491 58.5248H39.9296Z" fill="#F7FEFF"/>
<path d="M45.1922 60.7699V61.8375C45.093 61.9669 44.9593 62.0963 44.791 62.2257C44.6228 62.3551 44.4158 62.4629 44.1699 62.5492C43.9284 62.6311 43.6437 62.6721 43.3159 62.6721C42.8586 62.6678 42.4553 62.5686 42.1059 62.3745C41.7566 62.1761 41.4826 61.9022 41.2842 61.5528C41.0901 61.1991 40.9931 60.7872 40.9931 60.317C40.9931 59.8468 41.0901 59.4349 41.2842 59.0812C41.4826 58.7275 41.7566 58.4536 42.1059 58.2595C42.4553 58.0611 42.8586 57.9619 43.3159 57.9619C43.5531 57.9619 43.7666 57.9813 43.9564 58.0201C44.1462 58.0589 44.3166 58.1128 44.4675 58.1819C44.6228 58.2466 44.763 58.3199 44.8881 58.4018L45.0175 59.3141H44.9593C44.8946 59.0639 44.7867 58.8547 44.6358 58.6865C44.4891 58.514 44.3036 58.3824 44.0793 58.2918C43.855 58.2013 43.6005 58.156 43.3159 58.156C42.9535 58.156 42.6343 58.2465 42.3583 58.4277C42.0822 58.6089 41.8665 58.8612 41.7113 59.1847C41.556 59.5082 41.4783 59.8856 41.4783 60.317C41.4783 60.7483 41.556 61.1258 41.7113 61.4493C41.8665 61.7728 42.0822 62.0251 42.3583 62.2063C42.6343 62.3831 42.9535 62.4737 43.3159 62.478C43.5056 62.478 43.6868 62.4564 43.8593 62.4133C44.0362 62.3659 44.2023 62.3012 44.3575 62.2192C44.5128 62.1329 44.6509 62.0316 44.7716 61.9151L44.7781 60.7699C44.7781 60.5758 44.6681 60.4787 44.4481 60.4787H44.3446V60.414H45.6127V60.4787H45.5157C45.2914 60.4787 45.1836 60.5758 45.1922 60.7699Z" fill="#F7FEFF"/>
<path d="M46.7286 58.0524H47.6409C47.835 58.0524 48.0097 58.0805 48.165 58.1366C48.3246 58.1926 48.4583 58.2746 48.5661 58.3824C48.6739 58.4859 48.7559 58.6132 48.812 58.7642C48.8724 58.9108 48.9026 59.079 48.9026 59.2688C48.9026 59.4759 48.8529 59.6743 48.7537 59.8641C48.6588 60.0539 48.5273 60.2092 48.3591 60.3299C48.1952 60.4464 48.0097 60.5046 47.8026 60.5046C47.876 60.5348 47.9558 60.5974 48.042 60.6923C48.1283 60.7828 48.2038 60.8713 48.2685 60.9575C48.2685 60.9575 48.2965 61.0007 48.3526 61.0869C48.413 61.1689 48.4863 61.2703 48.5726 61.391C48.6632 61.5118 48.7537 61.6304 48.8443 61.7469C48.9349 61.8634 49.0125 61.9561 49.0772 62.0251C49.1635 62.12 49.2498 62.2041 49.3361 62.2774C49.4223 62.3508 49.5151 62.409 49.6143 62.4521C49.7178 62.4953 49.8321 62.5168 49.9572 62.5168V62.5815H49.6013C49.4029 62.5815 49.2304 62.5513 49.0837 62.4909C48.9414 62.4306 48.8206 62.3572 48.7214 62.271C48.6222 62.1804 48.5381 62.0941 48.4691 62.0122C48.4561 61.9949 48.4194 61.9453 48.3591 61.8634C48.303 61.7814 48.234 61.6843 48.152 61.5722C48.0744 61.4557 47.9967 61.3414 47.9191 61.2293C47.8415 61.1171 47.7746 61.0222 47.7185 60.9446C47.6624 60.8626 47.6301 60.8152 47.6215 60.8022C47.5395 60.6944 47.4489 60.5952 47.3497 60.5046C47.2505 60.414 47.1427 60.3687 47.0262 60.3687V60.304C47.0262 60.304 47.0586 60.3062 47.1233 60.3105C47.1923 60.3105 47.2742 60.3084 47.3691 60.304C47.4813 60.2997 47.6042 60.2825 47.7379 60.2523C47.8716 60.2221 47.9967 60.1595 48.1132 60.0647C48.2297 59.9698 48.3181 59.8253 48.3785 59.6312C48.3914 59.5837 48.4022 59.5255 48.4108 59.4565C48.4195 59.3831 48.4216 59.312 48.4173 59.2429C48.413 58.9496 48.3375 58.7167 48.1908 58.5442C48.0485 58.3673 47.8565 58.2724 47.615 58.2595C47.4942 58.2509 47.3691 58.2487 47.2397 58.253C47.1146 58.253 47.009 58.253 46.9227 58.253C46.8364 58.253 46.7933 58.253 46.7933 58.253C46.7933 58.2487 46.7868 58.2315 46.7739 58.2013C46.7653 58.1668 46.7545 58.1344 46.7415 58.1042C46.7329 58.0697 46.7286 58.0524 46.7286 58.0524ZM46.8127 58.0524V62.5815H46.3921V58.0524H46.8127ZM46.4116 62.1092V62.5815H45.8939V62.5168C45.8939 62.5168 45.9069 62.5168 45.9328 62.5168C45.963 62.5168 45.9781 62.5168 45.9781 62.5168C46.0902 62.5168 46.1851 62.478 46.2627 62.4004C46.3447 62.3184 46.3878 62.2214 46.3921 62.1092H46.4116ZM46.4116 58.5248H46.3921C46.3878 58.4126 46.3447 58.3177 46.2627 58.2401C46.1851 58.1581 46.0902 58.1171 45.9781 58.1171C45.9781 58.1171 45.963 58.1171 45.9328 58.1171C45.9069 58.1171 45.8939 58.1171 45.8939 58.1171V58.0524H46.4116V58.5248ZM46.7933 62.1092H46.8127C46.8127 62.2214 46.8537 62.3184 46.9356 62.4004C47.0176 62.478 47.1146 62.5168 47.2268 62.5168C47.2268 62.5168 47.2397 62.5168 47.2656 62.5168C47.2915 62.5168 47.3044 62.5168 47.3044 62.5168V62.5815H46.7933V62.1092Z" fill="#F7FEFF"/>
<path d="M50.8985 58.0524V62.5815H50.4779V58.0524H50.8985ZM52.6454 62.381V62.5815H50.8791V62.381H52.6454ZM52.3672 60.2523V60.4464H50.8791V60.2523H52.3672ZM52.6454 58.0524V58.253H50.8791V58.0524H52.6454ZM53.0401 61.5334L52.6648 62.5815H51.5908L51.8237 62.381C52.0523 62.381 52.2378 62.3465 52.3801 62.2774C52.5268 62.2041 52.6454 62.1027 52.736 61.9733C52.8266 61.8439 52.9064 61.6973 52.9754 61.5334H53.0401ZM52.3672 60.4335V60.8605H52.3025V60.7634C52.3025 60.6772 52.2723 60.6038 52.2119 60.5434C52.1515 60.4787 52.0782 60.4464 51.9919 60.4464V60.4335H52.3672ZM52.3672 59.8382V60.2652H51.9919V60.2523C52.0782 60.248 52.1515 60.2156 52.2119 60.1552C52.2723 60.0905 52.3025 60.0151 52.3025 59.9288V59.8382H52.3672ZM52.6454 58.2336V58.7512H52.5807V58.6348C52.5807 58.5312 52.5441 58.4428 52.4707 58.3695C52.3974 58.2918 52.3068 58.2509 52.199 58.2465V58.2336H52.6454ZM52.6454 57.936V58.1236L51.8561 58.0524C51.951 58.0524 52.0502 58.046 52.1537 58.033C52.2615 58.0201 52.3607 58.005 52.4513 57.9877C52.5419 57.9705 52.6066 57.9532 52.6454 57.936ZM50.4973 62.1092V62.5815H49.9797V62.5168C49.9797 62.5168 49.9927 62.5168 50.0185 62.5168C50.0487 62.5168 50.0638 62.5168 50.0638 62.5168C50.176 62.5168 50.2709 62.478 50.3485 62.4004C50.4305 62.3184 50.4736 62.2214 50.4779 62.1092H50.4973ZM50.4973 58.5248H50.4779C50.4779 58.4126 50.437 58.3177 50.355 58.2401C50.273 58.1581 50.176 58.1171 50.0638 58.1171C50.0638 58.1171 50.0509 58.1171 50.025 58.1171C49.9991 58.1171 49.9862 58.1171 49.9862 58.1171L49.9797 58.0524H50.4973V58.5248Z" fill="#F7FEFF"/>
<path d="M54.5357 58.0524V62.5815C54.5357 62.7627 54.5055 62.9309 54.4451 63.0862C54.3847 63.2458 54.3006 63.3838 54.1927 63.5003C54.0849 63.6168 53.9598 63.7073 53.8175 63.772C53.6751 63.841 53.522 63.8756 53.3581 63.8756V63.8173C53.5004 63.7656 53.6277 63.675 53.7398 63.5456C53.8563 63.4205 53.9469 63.2717 54.0116 63.0991C54.0806 62.9266 54.1151 62.7476 54.1151 62.5621V58.0524H54.5357ZM54.1345 58.5248H54.1151C54.1108 58.4126 54.0677 58.3177 53.9857 58.2401C53.9081 58.1581 53.8132 58.1171 53.701 58.1171C53.701 58.1171 53.6859 58.1171 53.6557 58.1171C53.6298 58.1171 53.6169 58.1171 53.6169 58.1171V58.0524H54.1345V58.5248ZM54.5162 58.5248V58.0524H55.0339V58.1171C55.0339 58.1171 55.0188 58.1171 54.9886 58.1171C54.9627 58.1171 54.9497 58.1171 54.9497 58.1171C54.8376 58.1171 54.7405 58.1581 54.6586 58.2401C54.5809 58.3177 54.54 58.4126 54.5357 58.5248H54.5162Z" fill="#F7FEFF"/>
<path d="M57.5522 57.9619L59.4673 62.5427H58.9173L57.4228 58.5765L57.5522 57.9619ZM56.1611 62.1092C56.1309 62.1955 56.1266 62.2688 56.1481 62.3292C56.1697 62.3896 56.2042 62.437 56.2517 62.4715C56.3034 62.5017 56.3552 62.5168 56.4069 62.5168H56.4652V62.5815H55.1647V62.5168C55.1647 62.5168 55.1755 62.5168 55.197 62.5168C55.2143 62.5168 55.2229 62.5168 55.2229 62.5168C55.3221 62.5168 55.4235 62.4866 55.527 62.4262C55.6348 62.3615 55.7233 62.2559 55.7923 62.1092H56.1611ZM57.5522 57.9619L57.6104 58.4148L55.9864 62.5621H55.5982L57.2545 58.6283C57.2545 58.6283 57.2653 58.6024 57.2869 58.5506C57.3128 58.4946 57.3408 58.4277 57.371 58.3501C57.4055 58.2724 57.4335 58.1969 57.4551 58.1236C57.481 58.0503 57.4939 57.9964 57.4939 57.9619H57.5522ZM58.4644 60.8152V61.0093H56.4393V60.8152H58.4644ZM58.7556 62.1092H59.2861C59.3508 62.2559 59.4371 62.3615 59.545 62.4262C59.6528 62.4866 59.7563 62.5168 59.8555 62.5168C59.8555 62.5168 59.8641 62.5168 59.8814 62.5168C59.8987 62.5168 59.9073 62.5168 59.9073 62.5168V62.5815H58.4515V62.5168H58.5097C58.5917 62.5168 58.665 62.4823 58.7297 62.4133C58.7944 62.34 58.803 62.2386 58.7556 62.1092Z" fill="#F7FEFF"/>
<path d="M1.11536 100.54H43.8182V101.618H1.11536V100.54Z" fill="#D9D9D9"/>
<path d="M54.8174 100.54H97.5202V101.618H54.8174V100.54Z" fill="#D9D9D9"/>
<path fill-rule="evenodd" clip-rule="evenodd" d="M49.3561 97.0889L45.5436 100.901L49.3561 104.714L53.1687 100.901L49.3561 97.0889ZM49.367 98.1564L46.6219 100.901L49.367 103.646L52.112 100.901L49.367 98.1564Z" fill="white"/>
<path d="M0.899687 48.7832H10.8205V63.4488H0.899687V48.7832Z" fill="white"/>
<path d="M0.126337 49.4238C-0.0421126 49.2553 -0.0421121 48.9822 0.126337 48.8137L5.46392 43.4762C5.63237 43.3077 5.90548 43.3077 6.07393 43.4762L11.5047 48.9069C11.6731 49.0753 11.6731 49.3485 11.5047 49.5169L6.16708 54.8545C5.99863 55.0229 5.72552 55.0229 5.55707 54.8545L0.126337 49.4238Z" fill="white"/>
<path d="M19.4474 29.3728H29.3682V63.2331H19.4474V29.3728Z" fill="white"/>
<path d="M18.674 29.582C18.5056 29.4136 18.5056 29.1405 18.674 28.972L24.0116 23.6345C24.1801 23.466 24.4532 23.466 24.6216 23.6345L30.0524 29.0652C30.2208 29.2336 30.2208 29.5067 30.0524 29.6752L24.7148 35.0128C24.5463 35.1812 24.2732 35.1812 24.1048 35.0128L18.674 29.582Z" fill="white"/>
<path d="M38.6421 12.6984H59.7778V54.7542H38.6421V12.6984Z" fill="white"/>
<path d="M37.2217 12.479C37.0533 12.3106 37.0533 12.0375 37.2217 11.869L48.9644 0.126337C49.1329 -0.0421124 49.406 -0.0421122 49.5744 0.126337L61.3171 11.869C61.4856 12.0375 61.4856 12.3106 61.3171 12.479L49.5744 24.2217C49.406 24.3901 49.1329 24.3901 48.9644 24.2217L37.2217 12.479Z" fill="white"/>
<path d="M69.2674 29.3728H79.1882V63.2331H69.2674V29.3728Z" fill="white"/>
<path d="M68.494 29.582C68.3256 29.4136 68.3256 29.1405 68.494 28.972L73.8316 23.6345C74 23.466 74.2732 23.466 74.4416 23.6345L79.8723 29.0652C80.0408 29.2336 80.0408 29.5067 79.8723 29.6752L74.5348 35.0128C74.3663 35.1812 74.0932 35.1812 73.9247 35.0128L68.494 29.582Z" fill="white"/>
<path d="M87.8151 48.7832H97.7359V63.4488H87.8151V48.7832Z" fill="white"/>
<path d="M87.0417 49.4238C86.8733 49.2553 86.8733 48.9822 87.0417 48.8137L92.3793 43.4762C92.5477 43.3077 92.8209 43.3077 92.9893 43.4762L98.42 48.9069C98.5885 49.0753 98.5885 49.3485 98.42 49.5169L93.0824 54.8545C92.914 55.0229 92.6409 55.0229 92.4724 54.8545L87.0417 49.4238Z" fill="white"/>
</svg>
