<svg width="376" height="394" viewBox="0 0 376 394" fill="none" xmlns="http://www.w3.org/2000/svg">
<path d="M14.3585 192.011C12.9604 192.011 11.7675 191.7 10.7798 191.077C9.80721 190.438 9.06259 189.572 8.54592 188.478C8.04444 187.384 7.7937 186.145 7.7937 184.763V165.023C7.7937 163.655 8.05204 162.424 8.56871 161.33C9.10058 160.236 9.8604 159.37 10.8482 158.731C11.8359 158.093 13.006 157.774 14.3585 157.774C15.3766 157.774 16.2884 157.964 17.0938 158.344C17.8992 158.724 18.5831 159.248 19.1453 159.917C19.7228 160.57 20.1635 161.337 20.4674 162.219C20.7713 163.085 20.9233 164.02 20.9233 165.023V169.627H16.3188V165.023C16.3188 164.324 16.1744 163.738 15.8857 163.267C15.597 162.796 15.1183 162.561 14.4497 162.561C13.8418 162.561 13.4011 162.804 13.1276 163.29C12.8541 163.776 12.7173 164.354 12.7173 165.023V184.763C12.7173 185.431 12.8617 186.009 13.1504 186.495C13.4543 186.981 13.8874 187.224 14.4497 187.224C15.1335 187.224 15.6122 186.989 15.8857 186.518C16.1744 186.047 16.3188 185.462 16.3188 184.763V180.158H20.9233V184.763C20.9233 186.13 20.6573 187.361 20.1255 188.455C19.5936 189.549 18.8338 190.416 17.846 191.054C16.8735 191.692 15.711 192.011 14.3585 192.011Z" fill="white" fill-opacity="0.88"/>
<path d="M30.0136 192.011C28.646 192.011 27.4682 191.692 26.4805 191.054C25.5079 190.416 24.7557 189.549 24.2238 188.455C23.7072 187.361 23.4488 186.13 23.4488 184.763V165.023C23.4488 163.64 23.7072 162.409 24.2238 161.33C24.7557 160.236 25.5079 159.37 26.4805 158.731C27.4682 158.093 28.646 157.774 30.0136 157.774C31.3813 157.774 32.5514 158.093 33.524 158.731C34.5117 159.37 35.2639 160.236 35.7806 161.33C36.3125 162.424 36.5784 163.655 36.5784 165.023V184.763C36.5784 186.13 36.3125 187.361 35.7806 188.455C35.2639 189.549 34.5117 190.416 33.524 191.054C32.5514 191.692 31.3813 192.011 30.0136 192.011ZM30.0136 187.224C30.6215 187.224 31.047 186.974 31.2901 186.472C31.5333 185.955 31.6548 185.386 31.6548 184.763V165.023C31.6548 164.4 31.5257 163.837 31.2673 163.336C31.009 162.819 30.5911 162.561 30.0136 162.561C29.4514 162.561 29.0335 162.819 28.7599 163.336C28.5016 163.837 28.3724 164.4 28.3724 165.023V184.763C28.3724 185.386 28.5016 185.955 28.7599 186.472C29.0183 186.974 29.4362 187.224 30.0136 187.224Z" fill="white" fill-opacity="0.88"/>
<path d="M39.3319 191.646V158.139H43.9364L48.4953 175.599L48.9056 177.149H49.1791V158.139H53.6924V191.646H49.5438L44.529 174.186L44.1187 172.636H43.8452V191.646H39.3319Z" fill="white" fill-opacity="0.88"/>
<path d="M56.6343 191.646V158.139H68.3506V163.199H61.5579V171.998H66.1168V177.058H61.5579V191.646H56.6343Z" fill="white" fill-opacity="0.88"/>
<path d="M69.6627 191.646V158.139H80.9232V163.199H74.5863V172.226H79.1452V177.149H74.5863V186.586H80.9232V191.646H69.6627Z" fill="white" fill-opacity="0.88"/>
<path d="M83.8932 191.646V158.139H88.8168C91.7649 158.139 93.9379 158.959 95.336 160.6C96.7341 162.226 97.4331 164.627 97.4331 167.803C97.4331 169.688 97.0988 171.321 96.4301 172.704C95.7767 174.072 94.9789 175.075 94.0367 175.713L97.3875 191.646H92.4639L89.683 177.514H88.8168V191.646H83.8932ZM88.8168 172.955C89.7286 172.955 90.4504 172.757 90.9823 172.362C91.5141 171.952 91.894 171.375 92.122 170.63C92.3499 169.885 92.4639 169.004 92.4639 167.986C92.4639 166.39 92.198 165.167 91.6661 164.316C91.1494 163.45 90.1997 163.017 88.8168 163.017V172.955Z" fill="white" fill-opacity="0.88"/>
<path d="M99.5038 191.646V158.139H110.764V163.199H104.427V172.226H108.986V177.149H104.427V186.586H110.764V191.646H99.5038ZM99.1163 155.084L102.262 150.981H107.14L110.286 155.084H106.091L104.678 153.033L103.31 155.084H99.1163Z" fill="white" fill-opacity="0.88"/>
<path d="M113.734 191.646V158.139H118.339L122.898 175.599L123.308 177.149H123.581V158.139H128.095V191.646H123.946L118.931 174.186L118.521 172.636H118.248V191.646H113.734Z" fill="white" fill-opacity="0.88"/>
<path d="M137.374 192.011C135.975 192.011 134.783 191.7 133.795 191.077C132.822 190.438 132.078 189.572 131.561 188.478C131.059 187.384 130.809 186.145 130.809 184.763V165.023C130.809 163.655 131.067 162.424 131.584 161.33C132.116 160.236 132.875 159.37 133.863 158.731C134.851 158.093 136.021 157.774 137.374 157.774C138.392 157.774 139.303 157.964 140.109 158.344C140.914 158.724 141.598 159.248 142.16 159.917C142.738 160.57 143.179 161.337 143.482 162.219C143.786 163.085 143.938 164.02 143.938 165.023V169.627H139.334V165.023C139.334 164.324 139.189 163.738 138.901 163.267C138.612 162.796 138.133 162.561 137.465 162.561C136.857 162.561 136.416 162.804 136.143 163.29C135.869 163.776 135.732 164.354 135.732 165.023V184.763C135.732 185.431 135.877 186.009 136.165 186.495C136.469 186.981 136.902 187.224 137.465 187.224C138.149 187.224 138.627 186.989 138.901 186.518C139.189 186.047 139.334 185.462 139.334 184.763V180.158H143.938V184.763C143.938 186.13 143.672 187.361 143.141 188.455C142.609 189.549 141.849 190.416 140.861 191.054C139.889 191.692 138.726 192.011 137.374 192.011Z" fill="white" fill-opacity="0.88"/>
<path d="M146.692 191.646V158.139H151.615V191.646H146.692Z" fill="white" fill-opacity="0.88"/>
<path d="M153.575 191.646L158.635 158.139H164.653L169.713 191.646H164.926L164.014 184.808H159.273L158.361 191.646H153.575ZM159.957 179.611H163.331L161.917 168.351L161.781 166.573H161.507L161.37 168.351L159.957 179.611Z" fill="white" fill-opacity="0.88"/>
<path d="M177.986 191.646V158.139H183.001C184.581 158.139 185.919 158.397 187.013 158.914C188.107 159.43 188.988 160.312 189.657 161.558C190.325 162.804 190.804 164.513 191.093 166.687C191.397 168.86 191.549 171.603 191.549 174.915C191.549 178.243 191.397 180.994 191.093 183.167C190.804 185.325 190.325 187.027 189.657 188.273C188.988 189.504 188.107 190.378 187.013 190.894C185.919 191.396 184.581 191.646 183.001 191.646H177.986ZM182.91 186.723C184.125 186.723 184.984 186.244 185.485 185.287C185.987 184.329 186.291 182.962 186.397 181.184C186.504 179.406 186.557 177.294 186.557 174.847C186.557 172.37 186.504 170.258 186.397 168.51C186.291 166.747 185.979 165.402 185.463 164.475C184.961 163.533 184.11 163.062 182.91 163.062V186.723Z" fill="white" fill-opacity="0.88"/>
<path d="M194.264 191.646V158.139H205.525V163.199H199.188V172.226H203.747V177.149H199.188V186.586H205.525V191.646H194.264Z" fill="white" fill-opacity="0.88"/>
<path d="M10.453 282.824V204.639H21.9414V272.187H37.1529V282.824H10.453Z" fill="white" fill-opacity="0.88"/>
<path d="M55.0154 283.675C51.8242 283.675 49.0762 282.93 46.7714 281.441C44.5021 279.952 42.747 277.931 41.5059 275.378C40.3004 272.825 39.6976 269.953 39.6976 266.762V220.702C39.6976 217.475 40.3004 214.603 41.5059 212.085C42.747 209.532 44.5021 207.511 46.7714 206.022C49.0762 204.533 51.8242 203.788 55.0154 203.788C58.2066 203.788 60.9369 204.533 63.2062 206.022C65.511 207.511 67.2661 209.532 68.4717 212.085C69.7127 214.638 70.3333 217.51 70.3333 220.702V266.762C70.3333 269.953 69.7127 272.825 68.4717 275.378C67.2661 277.931 65.511 279.952 63.2062 281.441C60.9369 282.93 58.2066 283.675 55.0154 283.675ZM55.0154 272.506C56.4337 272.506 57.4266 271.921 57.9939 270.751C58.5612 269.545 58.8449 268.215 58.8449 266.762V220.702C58.8449 219.248 58.5435 217.936 57.9407 216.766C57.3379 215.56 56.3628 214.958 55.0154 214.958C53.7035 214.958 52.7284 215.56 52.0901 216.766C51.4873 217.936 51.186 219.248 51.186 220.702V266.762C51.186 268.215 51.4873 269.545 52.0901 270.751C52.6929 271.921 53.668 272.506 55.0154 272.506Z" fill="white" fill-opacity="0.88"/>
<path d="M92.0759 283.675C88.8493 283.675 86.0835 282.93 83.7788 281.441C81.5094 279.952 79.772 277.931 78.5664 275.378C77.3609 272.825 76.7581 269.953 76.7581 266.762V204.639H88.2465V266.762C88.2465 268.286 88.5479 269.634 89.1506 270.804C89.7534 271.938 90.7285 272.506 92.0759 272.506C93.4942 272.506 94.4871 271.938 95.0544 270.804C95.6217 269.634 95.9054 268.286 95.9054 266.762V204.639H107.394V266.762C107.394 269.953 106.773 272.825 105.532 275.378C104.327 277.931 102.571 279.952 100.267 281.441C97.9974 282.93 95.2671 283.675 92.0759 283.675Z" fill="white" fill-opacity="0.88"/>
<path d="M123.58 282.824L111.666 204.639H122.835L128.58 250.806L129.005 258.358H129.643L130.069 250.806L135.813 204.639H146.982L135.068 282.824H123.58Z" fill="white" fill-opacity="0.88"/>
<path d="M166.056 283.675C162.864 283.675 160.116 282.93 157.812 281.441C155.542 279.952 153.787 277.931 152.546 275.378C151.341 272.825 150.738 269.953 150.738 266.762V220.702C150.738 217.475 151.341 214.603 152.546 212.085C153.787 209.532 155.542 207.511 157.812 206.022C160.116 204.533 162.864 203.788 166.056 203.788C169.247 203.788 171.977 204.533 174.246 206.022C176.551 207.511 178.306 209.532 179.512 212.085C180.753 214.638 181.374 217.51 181.374 220.702V266.762C181.374 269.953 180.753 272.825 179.512 275.378C178.306 277.931 176.551 279.952 174.246 281.441C171.977 282.93 169.247 283.675 166.056 283.675ZM166.056 272.506C167.474 272.506 168.467 271.921 169.034 270.751C169.601 269.545 169.885 268.215 169.885 266.762V220.702C169.885 219.248 169.584 217.936 168.981 216.766C168.378 215.56 167.403 214.958 166.056 214.958C164.744 214.958 163.769 215.56 163.13 216.766C162.528 217.936 162.226 219.248 162.226 220.702V266.762C162.226 268.215 162.528 269.545 163.13 270.751C163.733 271.921 164.708 272.506 166.056 272.506Z" fill="white" fill-opacity="0.88"/>
<path d="M187.798 282.824V204.639H199.287C206.166 204.639 211.236 206.554 214.498 210.383C217.76 214.177 219.391 219.78 219.391 227.191C219.391 231.587 218.611 235.399 217.051 238.626C215.526 241.817 213.665 244.157 211.467 245.646L219.285 282.824H207.797L201.308 249.848H199.287V282.824H187.798ZM199.287 239.211C201.414 239.211 203.098 238.75 204.339 237.828C205.58 236.871 206.467 235.523 206.999 233.786C207.531 232.048 207.797 229.992 207.797 227.616C207.797 223.893 207.176 221.039 205.935 219.053C204.73 217.032 202.513 216.021 199.287 216.021V239.211Z" fill="white" fill-opacity="0.88"/>
<path d="M299.78 240.913C300.489 241.055 300.844 241.409 300.844 241.977C299.567 245.948 297.794 249.813 295.525 253.571C293.327 257.259 291.093 260.344 288.824 262.826C286.625 265.237 284.498 267.4 282.441 269.315C280.456 271.158 278.824 272.506 277.548 273.357L275.633 274.633C275.421 274.775 275.243 274.952 275.101 275.165C274.96 275.378 274.889 275.52 274.889 275.591V275.803C275.101 282.115 276.094 286.937 277.867 290.27C278.009 290.696 278.08 290.944 278.08 291.015C278.08 291.582 277.796 291.866 277.229 291.866C275.598 291.866 273.754 290.625 271.697 288.143C269.641 285.732 268.364 283.001 267.868 279.952C267.797 279.597 267.62 279.42 267.336 279.42L266.911 279.526C261.592 282.079 256.699 283.356 252.231 283.356C248.189 283.356 244.749 282.15 241.913 279.739C239.147 277.328 237.764 274.031 237.764 269.846C237.764 265.733 238.792 261.656 240.849 257.613C242.906 253.571 245.6 249.955 248.933 246.763C252.266 243.572 255.812 240.771 259.571 238.36C263.329 235.949 267.159 233.892 271.059 232.19C271.272 232.119 271.449 232.013 271.591 231.871C271.733 231.658 271.804 231.481 271.804 231.339L271.91 231.233C273.399 226.056 275.279 221.482 277.548 217.51C279.817 213.468 282.158 210.383 284.569 208.256C287.051 206.058 289.355 204.427 291.483 203.363C293.681 202.299 295.667 201.767 297.44 201.767C299.142 201.767 299.993 202.973 299.993 205.384C299.993 209.142 298.043 212.901 294.142 216.659C290.313 220.347 286.129 223.29 281.59 225.489L280.846 226.233C277.158 238.36 275.172 253.181 274.889 270.697C274.889 271.123 275.03 271.336 275.314 271.336L275.74 271.123C279.215 268.783 282.299 265.521 284.994 261.337C287.689 257.082 289.036 253.252 289.036 249.848C289.036 246.231 287.299 243.927 283.824 242.934C283.469 242.65 283.292 242.331 283.292 241.977C283.292 241.551 283.647 241.267 284.356 241.126C287.051 240.842 290.136 240.7 293.61 240.7C296.305 240.7 298.362 240.771 299.78 240.913ZM291.589 206.767C289.816 206.767 287.795 208.823 285.526 212.936C283.328 217.05 282.228 219.922 282.228 221.553C282.228 221.907 282.335 222.085 282.548 222.085C282.689 222.085 282.796 222.049 282.867 221.978C283.15 221.836 283.505 221.624 283.93 221.34C284.356 220.985 285.136 220.312 286.271 219.319C287.476 218.326 288.505 217.333 289.355 216.34C290.277 215.277 291.093 214.036 291.802 212.617C292.511 211.128 292.866 209.674 292.866 208.256C292.866 207.263 292.44 206.767 291.589 206.767ZM270.315 236.658C270.315 236.303 270.102 236.126 269.676 236.126C265.634 238.253 262.124 240.735 259.145 243.572C256.238 246.409 254.11 249.104 252.763 251.657C251.415 254.209 250.352 256.621 249.572 258.89C248.792 261.159 248.366 262.968 248.295 264.315L248.189 266.336C248.331 274.137 251.912 278.037 258.933 278.037C260.067 278.037 261.237 277.931 262.443 277.718C263.719 277.505 264.677 277.293 265.315 277.08L266.272 276.761C266.84 276.548 267.123 276.016 267.123 275.165C266.769 272.683 266.591 269.669 266.591 266.123C266.591 257.684 267.833 247.863 270.315 236.658Z" fill="white" fill-opacity="0.88"/>
<path d="M8.05964 374.002L19.8671 295.817H33.9085L45.716 374.002H34.5467L32.4193 358.046H21.3564L19.2289 374.002H8.05964ZM22.952 345.919H30.8237L27.5261 319.645L27.2069 315.496H26.5687L26.2496 319.645L22.952 345.919Z" fill="white" fill-opacity="0.88"/>
<path d="M50.202 374.002V295.817H61.9031C65.5908 295.817 68.7111 296.42 71.264 297.625C73.817 298.831 75.8736 300.887 77.4337 303.795C78.9939 306.702 80.1108 310.692 80.7845 315.762C81.4937 320.832 81.8482 327.233 81.8482 334.962C81.8482 342.728 81.4937 349.146 80.7845 354.216C80.1108 359.251 78.9939 363.223 77.4337 366.13C75.8736 369.002 73.817 371.041 71.264 372.247C68.7111 373.417 65.5908 374.002 61.9031 374.002H50.202ZM61.6904 362.513C64.527 362.513 66.5304 361.396 67.7005 359.163C68.8706 356.929 69.5798 353.738 69.828 349.589C70.0762 345.44 70.2003 340.512 70.2003 334.803C70.2003 329.023 70.0762 324.095 69.828 320.017C69.5798 315.904 68.8529 312.766 67.6473 310.603C66.4772 308.404 64.4916 307.305 61.6904 307.305V362.513Z" fill="white" fill-opacity="0.88"/>
<path d="M102.971 374.853C99.7797 374.853 97.0317 374.108 94.727 372.619C92.4576 371.13 90.7025 369.109 89.4614 366.556C88.2559 364.003 87.6531 361.13 87.6531 357.939V311.879C87.6531 308.653 88.2559 305.781 89.4614 303.263C90.7025 300.71 92.4576 298.689 94.727 297.2C97.0317 295.711 99.7797 294.966 102.971 294.966C106.162 294.966 108.892 295.711 111.162 297.2C113.467 298.689 115.222 300.71 116.427 303.263C117.668 305.816 118.289 308.688 118.289 311.879V357.939C118.289 361.13 117.668 364.003 116.427 366.556C115.222 369.109 113.467 371.13 111.162 372.619C108.892 374.108 106.162 374.853 102.971 374.853ZM102.971 363.683C104.389 363.683 105.382 363.098 105.949 361.928C106.517 360.723 106.8 359.393 106.8 357.939V311.879C106.8 310.426 106.499 309.114 105.896 307.944C105.293 306.738 104.318 306.135 102.971 306.135C101.659 306.135 100.684 306.738 100.046 307.944C99.4429 309.114 99.1415 310.426 99.1415 311.879V357.939C99.1415 359.393 99.4429 360.723 100.046 361.928C100.648 363.098 101.624 363.683 102.971 363.683Z" fill="white" fill-opacity="0.88"/>
<path d="M124.714 374.002V295.817H136.202C143.081 295.817 148.151 297.732 151.413 301.561C154.676 305.355 156.307 310.957 156.307 318.368C156.307 322.765 155.527 326.577 153.966 329.803C152.442 332.995 150.58 335.335 148.382 336.824L156.2 374.002H144.712L138.223 341.026H136.202V374.002H124.714ZM136.202 330.388C138.329 330.388 140.014 329.927 141.255 329.006C142.496 328.048 143.382 326.701 143.914 324.963C144.446 323.226 144.712 321.169 144.712 318.794C144.712 315.071 144.091 312.216 142.85 310.231C141.645 308.209 139.429 307.199 136.202 307.199V330.388Z" fill="white" fill-opacity="0.88"/>
<path d="M158.745 374.002L170.552 295.817H184.594L196.401 374.002H185.232L183.105 358.046H172.042L169.914 374.002H158.745ZM173.637 345.919H181.509L178.211 319.645L177.892 315.496H177.254L176.935 319.645L173.637 345.919Z" fill="white" fill-opacity="0.88"/>
<path d="M215.673 374.853C212.411 374.853 209.628 374.126 207.323 372.672C205.054 371.183 203.316 369.162 202.111 366.609C200.94 364.056 200.355 361.166 200.355 357.939V311.879C200.355 308.688 200.958 305.816 202.164 303.263C203.405 300.71 205.178 298.689 207.482 297.2C209.787 295.711 212.518 294.966 215.673 294.966C218.049 294.966 220.176 295.409 222.056 296.296C223.935 297.182 225.531 298.405 226.843 299.965C228.19 301.49 229.218 303.281 229.927 305.337C230.637 307.358 230.991 309.539 230.991 311.879V322.623H220.247V311.879C220.247 310.248 219.911 308.883 219.237 307.784C218.563 306.685 217.446 306.135 215.886 306.135C214.468 306.135 213.439 306.703 212.801 307.837C212.163 308.972 211.844 310.319 211.844 311.879V357.939C211.844 359.499 212.181 360.847 212.854 361.981C213.564 363.116 214.574 363.683 215.886 363.683C217.482 363.683 218.599 363.134 219.237 362.035C219.911 360.935 220.247 359.57 220.247 357.939V347.195H230.991V357.939C230.991 361.13 230.371 364.003 229.13 366.556C227.889 369.109 226.116 371.13 223.811 372.619C221.542 374.108 218.829 374.853 215.673 374.853ZM221.896 377.246C223.456 377.246 224.875 377.76 226.151 378.789C227.428 379.852 228.066 381.625 228.066 384.107C228.066 386.412 227.41 388.291 226.098 389.745C224.821 391.234 223.155 392.316 221.098 392.989C219.077 393.663 216.95 394 214.716 394C212.801 394 210.851 393.699 208.865 393.096C206.915 392.528 205.479 391.908 204.557 391.234L207.323 385.384C207.961 385.845 209.06 386.394 210.621 387.033C212.216 387.671 213.776 387.99 215.301 387.99C216.861 387.99 218.191 387.724 219.29 387.192C220.389 386.66 220.939 385.738 220.939 384.426C220.939 383.327 220.637 382.583 220.035 382.193C219.467 381.802 218.847 381.607 218.173 381.607C216.577 381.607 215.425 382.21 214.716 383.416L208.919 381.501L212.057 374.002H218.386L215.886 379.746H215.407C215.691 378.966 216.489 378.345 217.801 377.884C219.113 377.459 220.478 377.246 221.896 377.246Z" fill="white" fill-opacity="0.88"/>
<path d="M235.023 374.002L246.83 295.817H260.871L272.679 374.002H261.51L259.382 358.046H248.319L246.192 374.002H235.023ZM249.915 345.919H257.787L254.489 319.645L254.17 315.496H253.532L253.212 319.645L249.915 345.919ZM258.531 289.913C256.865 289.913 255.34 289.594 253.957 288.956C252.432 288.247 250.837 287.892 249.17 287.892C248.213 287.892 247.22 288.069 246.192 288.424C245.163 288.743 244.277 289.133 243.532 289.594V281.722C244.029 281.332 244.578 281.013 245.181 280.765C245.784 280.481 246.405 280.233 247.043 280.02C247.681 279.808 248.39 279.701 249.17 279.701C250.837 279.701 252.397 279.985 253.851 280.552C254.631 280.836 255.411 281.102 256.191 281.35C256.971 281.598 257.751 281.722 258.531 281.722C259.489 281.722 260.481 281.563 261.51 281.244C262.538 280.889 263.424 280.481 264.169 280.02V287.892C263.495 288.495 262.591 288.991 261.456 289.381C260.322 289.736 259.347 289.913 258.531 289.913Z" fill="white" fill-opacity="0.88"/>
<path d="M291.951 374.853C288.76 374.853 286.012 374.108 283.707 372.619C281.438 371.13 279.682 369.109 278.441 366.556C277.236 364.003 276.633 361.13 276.633 357.939V311.879C276.633 308.653 277.236 305.781 278.441 303.263C279.682 300.71 281.438 298.689 283.707 297.2C286.012 295.711 288.76 294.966 291.951 294.966C295.142 294.966 297.872 295.711 300.142 297.2C302.446 298.689 304.202 300.71 305.407 303.263C306.648 305.816 307.269 308.688 307.269 311.879V357.939C307.269 361.13 306.648 364.003 305.407 366.556C304.202 369.109 302.446 371.13 300.142 372.619C297.872 374.108 295.142 374.853 291.951 374.853ZM291.951 363.683C293.369 363.683 294.362 363.098 294.929 361.928C295.497 360.723 295.78 359.393 295.78 357.939V311.879C295.78 310.426 295.479 309.114 294.876 307.944C294.273 306.738 293.298 306.135 291.951 306.135C290.639 306.135 289.664 306.738 289.026 307.944C288.423 309.114 288.121 310.426 288.121 311.879V357.939C288.121 359.393 288.423 360.723 289.026 361.928C289.628 363.098 290.603 363.683 291.951 363.683Z" fill="white" fill-opacity="0.88"/>
<path d="M0.40918 288.357L309.788 254.449L314.709 299.348L5.33025 333.257L0.40918 288.357Z" fill="#D9D9D9" fill-opacity="0.88"/>
<path d="M36.2511 322.398L33.0801 293.465L37.4101 292.991C38.7748 292.841 39.9539 292.938 40.9475 293.28C41.9412 293.623 42.7856 294.301 43.4809 295.313C44.1762 296.326 44.7513 297.757 45.2062 299.606C45.6743 301.453 46.0651 303.808 46.3786 306.668C46.6936 309.542 46.8227 311.931 46.7659 313.836C46.7208 315.727 46.4685 317.242 46.0091 318.381C45.5483 319.507 44.8699 320.345 43.9741 320.894C43.0768 321.431 41.9458 321.774 40.5812 321.924L36.2511 322.398ZM40.0365 317.681C41.0862 317.566 41.7823 317.071 42.1247 316.197C42.4671 315.323 42.6001 314.113 42.5237 312.568C42.4473 311.023 42.2933 309.194 42.0618 307.081C41.8274 304.943 41.5815 303.124 41.3243 301.625C41.0656 300.113 40.6694 298.981 40.1355 298.23C39.6133 297.463 38.834 297.137 37.7974 297.251L40.0365 317.681Z" fill="#53234F"/>
<path d="M62.6083 319.509L63.8067 290.098L69.0027 289.528L76.5432 317.982L72.41 318.435L70.9755 312.617L66.8817 313.066L66.7415 319.056L62.6083 319.509ZM66.9803 308.513L69.8932 308.194L67.6073 298.605L67.3209 297.083L67.0848 297.108L67.1349 298.657L66.9803 308.513Z" fill="#53234F"/>
<path d="M91.3903 316.355L88.2193 287.422L92.1951 286.986L97.7839 301.632L98.2849 302.931L98.521 302.905L96.722 286.49L100.619 286.063L103.79 314.996L100.208 315.388L94.2255 300.787L93.7245 299.487L93.4883 299.513L95.2874 315.928L91.3903 316.355Z" fill="#53234F"/>
<path d="M122.863 312.905L121.513 300.584L115.362 284.447L119.535 283.99L122.635 293.012L122.911 294.256L123.029 294.244L123.029 292.969L124.101 283.49L128.274 283.032L125.764 300.118L127.115 312.44L122.863 312.905Z" fill="#53234F"/>
<path d="M169.729 308.088C168.561 308.216 167.58 308.044 166.785 307.574C165.99 307.103 165.363 306.415 164.905 305.509C164.461 304.602 164.173 303.558 164.044 302.377L162.176 285.332C162.048 284.164 162.162 283.083 162.517 282.088C162.873 281.092 163.447 280.273 164.24 279.628C165.031 278.97 166.004 278.578 167.158 278.452C168.038 278.355 168.843 278.433 169.574 278.685C170.317 278.922 170.963 279.303 171.512 279.827C172.074 280.35 172.521 280.978 172.854 281.712C173.198 282.431 173.418 283.223 173.513 284.089L174 288.537L169.749 289.003L169.261 284.555C169.198 283.978 169.039 283.491 168.783 283.094C168.527 282.697 168.136 282.527 167.611 282.585C167.1 282.641 166.757 282.904 166.583 283.375C166.42 283.831 166.368 284.328 166.427 284.866L168.334 302.265C168.396 302.829 168.562 303.316 168.833 303.724C169.102 304.12 169.486 304.29 169.984 304.235C170.509 304.178 170.854 303.928 171.017 303.485C171.18 303.029 171.23 302.519 171.168 301.954L170.638 297.112L168.945 297.298L168.509 293.322L174.453 292.671L176.032 307.078L173.513 307.354L172.829 305.836C172.526 306.466 172.105 306.984 171.565 307.388C171.037 307.778 170.425 308.011 169.729 308.088Z" fill="#53234F"/>
<path d="M191.789 305.351L188.618 276.418L192.869 275.952C195.415 275.673 197.369 276.176 198.732 277.461C200.093 278.733 200.923 280.74 201.224 283.482C201.402 285.109 201.268 286.551 200.822 287.809C200.387 289.052 199.793 289.993 199.04 290.633L203.441 304.074L199.19 304.54L195.451 292.6L194.703 292.682L196.041 304.885L191.789 305.351ZM194.272 288.746C195.059 288.66 195.664 288.421 196.085 288.029C196.506 287.625 196.779 287.09 196.906 286.425C197.032 285.761 197.047 284.989 196.951 284.11C196.8 282.732 196.454 281.701 195.914 281.017C195.386 280.318 194.525 280.033 193.331 280.164L194.272 288.746Z" fill="#53234F"/>
<path d="M217.57 302.526L218.768 273.114L223.964 272.544L231.505 300.998L227.371 301.451L225.937 295.633L221.843 296.082L221.703 302.073L217.57 302.526ZM221.942 291.529L224.855 291.21L222.569 281.621L222.282 280.099L222.046 280.124L222.096 281.673L221.942 291.529Z" fill="#53234F"/>
<path d="M251.858 299.086C250.651 299.218 249.591 299.062 248.679 298.618C247.779 298.159 247.054 297.481 246.505 296.586C245.968 295.688 245.634 294.643 245.503 293.449L243.635 276.404C243.506 275.223 243.612 274.136 243.955 273.142C244.311 272.147 244.885 271.327 245.677 270.682C246.47 270.038 247.45 269.652 248.618 269.524C249.497 269.427 250.302 269.505 251.034 269.757C251.765 270.009 252.405 270.397 252.954 270.921C253.514 271.43 253.967 272.051 254.313 272.784C254.658 273.503 254.877 274.295 254.972 275.161L255.408 279.137L251.432 279.573L250.996 275.597C250.93 274.993 250.75 274.502 250.456 274.122C250.163 273.743 249.727 273.585 249.15 273.648C248.625 273.706 248.267 273.957 248.077 274.403C247.887 274.849 247.823 275.361 247.887 275.938L249.755 292.983C249.818 293.56 249.997 294.045 250.293 294.437C250.601 294.829 250.998 294.998 251.484 294.944C252.074 294.88 252.465 294.631 252.657 294.198C252.861 293.764 252.931 293.245 252.865 292.642L252.429 288.666L256.405 288.23L256.84 292.206C256.97 293.387 256.857 294.475 256.501 295.47C256.145 296.465 255.571 297.285 254.779 297.93C253.999 298.573 253.026 298.958 251.858 299.086Z" fill="#53234F"/>
<path d="M273.056 296.444L269.885 267.511L279.608 266.446L280.087 270.815L274.616 271.415L275.47 279.209L279.406 278.778L279.872 283.029L275.936 283.46L276.829 291.609L282.301 291.009L282.779 295.378L273.056 296.444Z" fill="#53234F"/>
<path d="M375.331 87.25C375.331 135.092 336.548 173.875 288.706 173.875C240.865 173.875 202.081 135.092 202.081 87.25C202.081 39.4083 240.865 0.625 288.706 0.625C336.548 0.625 375.331 39.4083 375.331 87.25Z" fill="#D9D9D9" fill-opacity="0.48"/>
<path d="M228.465 120.662V110.864C230.572 107.628 232.617 104.225 234.601 100.653C236.585 97.0819 238.371 93.4952 239.958 89.8933C241.576 86.2608 242.858 82.7504 243.804 79.3622C244.75 75.9739 245.224 72.8603 245.224 70.0215C245.224 68.0069 245.025 66.1296 244.628 64.3896C244.231 62.6497 243.331 61.7798 241.927 61.7798C240.523 61.7798 239.622 62.6497 239.225 64.3896C238.829 66.099 238.63 67.9763 238.63 70.0215V74.6918H228.74V70.0215C228.74 67.3353 228.969 64.9238 229.427 62.7871C229.915 60.6198 230.678 58.7883 231.716 57.2926C232.754 55.7663 234.112 54.6064 235.791 53.8127C237.47 53.0191 239.515 52.6223 241.927 52.6223C244.338 52.6223 246.383 53.0191 248.062 53.8127C249.741 54.6064 251.1 55.7358 252.137 57.201C253.175 58.6662 253.923 60.4367 254.381 62.5124C254.869 64.5575 255.114 66.8469 255.114 69.3805C255.114 72.4025 254.656 75.6686 253.74 79.179C252.855 82.6589 251.664 86.2456 250.169 89.9391C248.703 93.6021 247.055 97.2193 245.224 100.791C243.392 104.332 241.53 107.689 239.637 110.864H255.297V120.662H228.465Z" fill="#F99F19"/>
<path d="M273.363 121.395C270.554 121.395 268.158 120.754 266.174 119.472C264.221 118.19 262.725 116.45 261.687 114.252C260.68 112.024 260.176 109.551 260.176 106.835V67.1827C260.176 64.4354 260.695 61.9629 261.733 59.7651C262.801 57.5673 264.327 55.8274 266.312 54.5453C268.296 53.2633 270.646 52.6223 273.363 52.6223C276.11 52.6223 278.46 53.2786 280.414 54.5911C282.398 55.8732 283.909 57.6131 284.947 59.8109C286.015 62.0087 286.55 64.466 286.55 67.1827V106.835C286.55 109.551 286.015 112.024 284.947 114.252C283.879 116.45 282.352 118.19 280.368 119.472C278.415 120.754 276.08 121.395 273.363 121.395ZM273.363 111.78C274.523 111.78 275.362 111.291 275.881 110.315C276.4 109.307 276.66 108.147 276.66 106.835V67.1827C276.66 65.8396 276.4 64.6796 275.881 63.7028C275.362 62.726 274.523 62.2376 273.363 62.2376C272.203 62.2376 271.363 62.7566 270.844 63.7944C270.326 64.8017 270.066 65.9312 270.066 67.1827V106.835C270.066 108.147 270.326 109.307 270.844 110.315C271.363 111.291 272.203 111.78 273.363 111.78Z" fill="#F99F19"/>
<path d="M291.359 120.662V110.864C293.465 107.628 295.51 104.225 297.494 100.653C299.478 97.0819 301.264 93.4952 302.851 89.8933C304.469 86.2608 305.751 82.7504 306.698 79.3622C307.644 75.9739 308.117 72.8603 308.117 70.0215C308.117 68.0069 307.919 66.1296 307.522 64.3896C307.125 62.6497 306.224 61.7798 304.82 61.7798C303.416 61.7798 302.516 62.6497 302.119 64.3896C301.722 66.099 301.524 67.9763 301.524 70.0215V74.6918H291.633V70.0215C291.633 67.3353 291.862 64.9238 292.32 62.7871C292.809 60.6198 293.572 58.7883 294.61 57.2926C295.647 55.7663 297.006 54.6064 298.685 53.8127C300.364 53.0191 302.409 52.6223 304.82 52.6223C307.232 52.6223 309.277 53.0191 310.956 53.8127C312.635 54.6064 313.993 55.7358 315.031 57.201C316.069 58.6662 316.817 60.4367 317.274 62.5124C317.763 64.5575 318.007 66.8469 318.007 69.3805C318.007 72.4025 317.549 75.6686 316.633 79.179C315.748 82.6589 314.558 86.2456 313.062 89.9391C311.597 93.6021 309.948 97.2193 308.117 100.791C306.285 104.332 304.423 107.689 302.531 110.864H318.19V120.662H291.359Z" fill="#F99F19"/>
<path d="M336.943 120.662V106.01H321.65V98.2266L335.661 53.3549H346.009V97.3109H350.588V106.01H346.009V120.662H336.943ZM330.075 97.3109H336.943V74.234H336.394L335.844 76.2486L330.075 97.3109Z" fill="#F99F19"/>
<path d="M251.101 55.075V52.4268C251.67 51.5523 252.223 50.6324 252.759 49.6671C253.296 48.7019 253.778 47.7325 254.207 46.759C254.645 45.7773 254.991 44.8285 255.247 43.9128C255.503 42.997 255.63 42.1555 255.63 41.3883C255.63 40.8438 255.577 40.3364 255.47 39.8661C255.362 39.3959 255.119 39.1608 254.739 39.1608C254.36 39.1608 254.117 39.3959 254.009 39.8661C253.902 40.3281 253.848 40.8355 253.848 41.3883V42.6505H251.175V41.3883C251.175 40.6623 251.237 40.0105 251.361 39.433C251.493 38.8473 251.699 38.3523 251.98 37.948C252.26 37.5355 252.627 37.222 253.081 37.0075C253.535 36.793 254.088 36.6858 254.739 36.6858C255.391 36.6858 255.944 36.793 256.398 37.0075C256.851 37.222 257.219 37.5273 257.499 37.9233C257.78 38.3193 257.982 38.7978 258.105 39.3588C258.237 39.9115 258.303 40.5303 258.303 41.215C258.303 42.0318 258.18 42.9145 257.932 43.8633C257.693 44.8038 257.371 45.7731 256.967 46.7714C256.571 47.7614 256.125 48.739 255.63 49.7043C255.135 50.6613 254.632 51.5688 254.121 52.4268H258.353V55.075H251.101Z" fill="#53234F"/>
<path d="M263.087 55.273C262.378 55.273 261.792 55.1451 261.33 54.8894C260.876 54.6336 260.521 54.2665 260.266 53.788C260.018 53.3013 259.845 52.7196 259.746 52.0431C259.647 51.3666 259.597 50.6118 259.597 49.7785H262.27V50.4963C262.27 51.1728 262.312 51.7503 262.394 52.2288C262.477 52.7073 262.708 52.9465 263.087 52.9465C263.335 52.9465 263.516 52.831 263.632 52.6C263.747 52.3608 263.821 52.0555 263.854 51.6843C263.887 51.313 263.904 50.9253 263.904 50.521V46.462C263.904 46.0743 263.854 45.7566 263.755 45.5091C263.665 45.2534 263.475 45.1255 263.186 45.1255C262.906 45.1255 262.683 45.2575 262.518 45.5215C262.353 45.7855 262.25 46.099 262.209 46.462H259.771V36.8838H266.23V39.532H262.072V43.4425C262.229 43.2528 262.431 43.0836 262.679 42.9351C262.935 42.7784 263.281 42.7 263.718 42.7C264.337 42.7 264.857 42.8526 265.278 43.1579C265.707 43.4549 266.028 43.8839 266.243 44.4449C266.466 45.0059 266.577 45.6783 266.577 46.462V50.521C266.577 51.1645 266.523 51.775 266.416 52.3525C266.317 52.9218 266.14 53.425 265.884 53.8623C265.628 54.2995 265.273 54.646 264.82 54.9018C264.366 55.1493 263.788 55.273 263.087 55.273Z" fill="#53234F"/>
<path d="M271.381 55.075V36.8838H277.494V39.631H274.054V44.5315H276.529V47.2045H274.054V52.3278H277.494V55.075H271.381Z" fill="#53234F"/>
<path d="M282.43 55.075V52.4268C283 51.5523 283.552 50.6324 284.089 49.6671C284.625 48.7019 285.107 47.7325 285.536 46.759C285.974 45.7773 286.32 44.8285 286.576 43.9128C286.832 42.997 286.96 42.1555 286.96 41.3883C286.96 40.8438 286.906 40.3364 286.799 39.8661C286.691 39.3959 286.448 39.1608 286.069 39.1608C285.689 39.1608 285.446 39.3959 285.338 39.8661C285.231 40.3281 285.178 40.8355 285.178 41.3883V42.6505H282.505V41.3883C282.505 40.6623 282.566 40.0105 282.69 39.433C282.822 38.8473 283.028 38.3523 283.309 37.948C283.589 37.5355 283.957 37.222 284.41 37.0075C284.864 36.793 285.417 36.6858 286.069 36.6858C286.72 36.6858 287.273 36.793 287.727 37.0075C288.181 37.222 288.548 37.5273 288.828 37.9233C289.109 38.3193 289.311 38.7978 289.435 39.3588C289.567 39.9115 289.633 40.5303 289.633 41.215C289.633 42.0318 289.509 42.9145 289.261 43.8633C289.022 44.8038 288.7 45.7731 288.296 46.7714C287.9 47.7614 287.455 48.739 286.96 49.7043C286.465 50.6613 285.961 51.5688 285.45 52.4268H289.682V55.075H282.43Z" fill="#53234F"/>
<path d="M294.416 55.273C293.649 55.273 293.005 55.1039 292.486 54.7656C291.966 54.4274 291.574 53.9613 291.31 53.3673C291.054 52.7733 290.927 52.0968 290.927 51.3378V41.116C290.927 40.456 290.988 39.8579 291.112 39.3216C291.244 38.7771 291.446 38.311 291.719 37.9233C291.999 37.5273 292.362 37.222 292.807 37.0075C293.253 36.793 293.789 36.6858 294.416 36.6858C295.052 36.6858 295.588 36.7889 296.025 36.9951C296.47 37.1931 296.829 37.4819 297.102 37.8614C297.382 38.2409 297.584 38.6946 297.708 39.2226C297.84 39.7506 297.906 40.3405 297.906 40.9923V41.8833H295.233C295.233 41.2975 295.217 40.7901 295.184 40.3611C295.151 39.9321 295.076 39.6021 294.961 39.3711C294.845 39.1319 294.664 39.0123 294.416 39.0123C294.169 39.0123 293.987 39.1113 293.872 39.3093C293.756 39.5073 293.682 39.7671 293.649 40.0889C293.616 40.4106 293.599 40.753 293.599 41.116V43.9128C293.715 43.756 293.896 43.6158 294.144 43.492C294.4 43.36 294.705 43.294 295.06 43.294C295.497 43.294 295.889 43.3724 296.235 43.5291C296.59 43.6859 296.891 43.9169 297.139 44.2221C297.386 44.5191 297.576 44.8904 297.708 45.3359C297.84 45.7814 297.906 46.297 297.906 46.8828V51.3378C297.906 52.105 297.774 52.7856 297.51 53.3796C297.246 53.9654 296.854 54.4274 296.334 54.7656C295.815 55.1039 295.175 55.273 294.416 55.273ZM294.416 52.9465C294.705 52.9465 294.911 52.8063 295.035 52.5258C295.167 52.237 295.233 51.94 295.233 51.6348V46.7095C295.233 46.4125 295.171 46.1361 295.047 45.8804C294.924 45.6246 294.717 45.4968 294.429 45.4968C294.148 45.4968 293.938 45.6246 293.797 45.8804C293.665 46.1279 293.599 46.4125 293.599 46.7343V51.6348C293.599 51.94 293.657 52.237 293.773 52.5258C293.897 52.8063 294.111 52.9465 294.416 52.9465Z" fill="#53234F"/>
<path d="M306.15 55.273C305.408 55.273 304.768 55.0998 304.232 54.7533C303.704 54.4068 303.296 53.9365 303.007 53.3425C302.726 52.7485 302.586 52.0803 302.586 51.3378V40.621C302.586 39.8703 302.726 39.202 303.007 38.6163C303.296 38.0223 303.704 37.552 304.232 37.2055C304.768 36.859 305.408 36.6858 306.15 36.6858C306.893 36.6858 307.528 36.859 308.056 37.2055C308.592 37.552 309 38.0223 309.281 38.6163C309.57 39.2103 309.714 39.8785 309.714 40.621V51.3378C309.714 52.0803 309.57 52.7485 309.281 53.3425C309 53.9365 308.592 54.4068 308.056 54.7533C307.528 55.0998 306.893 55.273 306.15 55.273ZM306.15 52.6743C306.48 52.6743 306.711 52.5381 306.843 52.2659C306.975 51.9854 307.041 51.676 307.041 51.3378V40.621C307.041 40.2828 306.971 39.9775 306.831 39.7053C306.69 39.4248 306.464 39.2845 306.15 39.2845C305.845 39.2845 305.618 39.4248 305.469 39.7053C305.329 39.9775 305.259 40.2828 305.259 40.621V51.3378C305.259 51.676 305.329 51.9854 305.469 52.2659C305.61 52.5381 305.837 52.6743 306.15 52.6743Z" fill="#53234F"/>
<path d="M314.773 55.273C314.022 55.273 313.379 55.0998 312.842 54.7533C312.314 54.4068 311.91 53.9365 311.63 53.3425C311.349 52.7485 311.209 52.0803 311.209 51.3378V36.8838H313.882V51.3378C313.882 51.6925 313.952 52.006 314.092 52.2783C314.233 52.5423 314.459 52.6743 314.773 52.6743C315.103 52.6743 315.334 52.5423 315.466 52.2783C315.598 52.006 315.664 51.6925 315.664 51.3378V36.8838H318.337V51.3378C318.337 52.0803 318.193 52.7485 317.904 53.3425C317.623 53.9365 317.215 54.4068 316.679 54.7533C316.151 55.0998 315.515 55.273 314.773 55.273Z" fill="#53234F"/>
<path d="M321.732 55.075V39.631H319.207V36.8838H326.929V39.631H324.405V55.075H321.732Z" fill="#53234F"/>
</svg>
